<?xml version="1.0" encoding="UTF-8" standalone="no"?>
<!-- Created with Inkscape (http://www.inkscape.org/) -->

<svg
   version="1.1"
   id="svg1"
   width="522.24036"
   height="354.10489"
   viewBox="0 0 522.24036 354.10489"
   sodipodi:docname="Andrea_model_t0_normed_rupture_times.pdf"
   xmlns:inkscape="http://www.inkscape.org/namespaces/inkscape"
   xmlns:sodipodi="http://sodipodi.sourceforge.net/DTD/sodipodi-0.dtd"
   xmlns="http://www.w3.org/2000/svg"
   xmlns:svg="http://www.w3.org/2000/svg">
  <defs
     id="defs1">
    <clipPath
       clipPathUnits="userSpaceOnUse"
       id="clipPath3">
      <path
         d="M -1016,-351 H 1660 V 1068 H -1016 Z"
         transform="translate(-1.1362503e-5,1.5625003e-4)"
         id="path3" />
    </clipPath>
    <clipPath
       clipPathUnits="userSpaceOnUse"
       id="clipPath6">
      <path
         d="M -1016,-351 H 1660 V 1068 H -1016 Z"
         transform="translate(5.6818757e-5,1.5625003e-4)"
         id="path6" />
    </clipPath>
    <clipPath
       clipPathUnits="userSpaceOnUse"
       id="clipPath9">
      <path
         d="M -1016,-351 H 1660 V 1068 H -1016 Z"
         transform="translate(1.5625002e-4,1.5625003e-4)"
         id="path9" />
    </clipPath>
    <clipPath
       clipPathUnits="userSpaceOnUse"
       id="clipPath12">
      <path
         d="M -1016,-351 H 1660 V 1068 H -1016 Z"
         transform="translate(9.9431269e-5,1.5625003e-4)"
         id="path12" />
    </clipPath>
    <clipPath
       clipPathUnits="userSpaceOnUse"
       id="clipPath15">
      <path
         d="M -1016,-351 H 1660 V 1068 H -1016 Z"
         transform="translate(-1.1363752e-4,1.5625003e-4)"
         id="path15" />
    </clipPath>
    <clipPath
       clipPathUnits="userSpaceOnUse"
       id="clipPath17">
      <path
         d="M -1016,-351 H 1660 V 1068 H -1016 Z"
         transform="translate(0,-1.3888888e-4)"
         id="path17" />
    </clipPath>
    <clipPath
       clipPathUnits="userSpaceOnUse"
       id="clipPath24">
      <path
         d="M -1016,-351 H 1660 V 1068 H -1016 Z"
         transform="translate(1.3888889e-4,1.3888889e-5)"
         id="path24" />
    </clipPath>
    <clipPath
       clipPathUnits="userSpaceOnUse"
       id="clipPath26">
      <path
         d="M -1016,-351 H 1660 V 1068 H -1016 Z"
         transform="translate(-9.9206343e-5,1.984127e-5)"
         id="path26" />
    </clipPath>
    <clipPath
       clipPathUnits="userSpaceOnUse"
       id="clipPath28">
      <path
         d="M -1016,-351 H 1660 V 1068 H -1016 Z"
         transform="translate(4.7744447e-5,1.3888889e-5)"
         id="path28" />
    </clipPath>
    <clipPath
       clipPathUnits="userSpaceOnUse"
       id="clipPath31">
      <path
         d="m 63.66875,51.10625 h 334.8 v 217.44 h -334.8 z"
         id="path31" />
    </clipPath>
    <clipPath
       clipPathUnits="userSpaceOnUse"
       id="clipPath33">
      <path
         d="m 63.66875,51.10625 h 334.8 v 217.44 h -334.8 z"
         id="path33" />
    </clipPath>
    <clipPath
       clipPathUnits="userSpaceOnUse"
       id="clipPath35">
      <path
         d="m 63.66875,51.10625 h 334.8 v 217.44 h -334.8 z"
         id="path35" />
    </clipPath>
    <clipPath
       clipPathUnits="userSpaceOnUse"
       id="clipPath37">
      <path
         d="m 63.66875,51.10625 h 334.8 v 217.44 h -334.8 z"
         id="path37" />
    </clipPath>
    <clipPath
       clipPathUnits="userSpaceOnUse"
       id="clipPath39">
      <path
         d="m 63.66875,51.10625 h 334.8 v 217.44 h -334.8 z"
         id="path39" />
    </clipPath>
    <clipPath
       clipPathUnits="userSpaceOnUse"
       id="clipPath41">
      <path
         d="m 63.66875,51.10625 h 334.8 v 217.44 h -334.8 z"
         id="path41" />
    </clipPath>
    <clipPath
       clipPathUnits="userSpaceOnUse"
       id="clipPath42">
      <path
         d="M -8,-8 H 8 V 8 H -8 Z"
         transform="translate(-3.1818001e-6)"
         id="path42" />
    </clipPath>
    <clipPath
       clipPathUnits="userSpaceOnUse"
       id="clipPath44">
      <path
         d="m 63.66875,51.10625 h 334.8 v 217.44 h -334.8 z"
         transform="matrix(1.3333333,0,0,-1.3333333,0,375.76583)"
         id="path44" />
    </clipPath>
    <clipPath
       clipPathUnits="userSpaceOnUse"
       id="clipPath45">
      <path
         d="M -8,-8 H 8 V 8 H -8 Z"
         id="path45" />
    </clipPath>
    <clipPath
       clipPathUnits="userSpaceOnUse"
       id="clipPath47">
      <path
         d="m 63.66875,51.10625 h 334.8 v 217.44 h -334.8 z"
         transform="matrix(1.3333333,0,0,-1.3333333,0,375.76583)"
         id="path47" />
    </clipPath>
    <clipPath
       clipPathUnits="userSpaceOnUse"
       id="clipPath48">
      <path
         d="M -8,-8 H 8 V 8 H -8 Z"
         transform="translate(-2.5000001e-6)"
         id="path48" />
    </clipPath>
    <clipPath
       clipPathUnits="userSpaceOnUse"
       id="clipPath50">
      <path
         d="m 63.66875,51.10625 h 334.8 v 217.44 h -334.8 z"
         transform="matrix(1.3333333,0,0,-1.3333333,0,375.76583)"
         id="path50" />
    </clipPath>
    <clipPath
       clipPathUnits="userSpaceOnUse"
       id="clipPath51">
      <path
         d="M -8,-8 H 8 V 8 H -8 Z"
         transform="translate(1.5909001e-6)"
         id="path51" />
    </clipPath>
    <clipPath
       clipPathUnits="userSpaceOnUse"
       id="clipPath53">
      <path
         d="m 63.66875,51.10625 h 334.8 v 217.44 h -334.8 z"
         transform="matrix(1.3333333,0,0,-1.3333333,0,375.76583)"
         id="path53" />
    </clipPath>
    <clipPath
       clipPathUnits="userSpaceOnUse"
       id="clipPath54">
      <path
         d="M -8,-8 H 8 V 8 H -8 Z"
         transform="translate(-1.8182001e-6)"
         id="path54" />
    </clipPath>
    <clipPath
       clipPathUnits="userSpaceOnUse"
       id="clipPath56">
      <path
         d="m 63.66875,51.10625 h 334.8 v 217.44 h -334.8 z"
         transform="matrix(1.3333333,0,0,-1.3333333,0,375.76583)"
         id="path56" />
    </clipPath>
    <clipPath
       clipPathUnits="userSpaceOnUse"
       id="clipPath69">
      <path
         d="M -1016,-351 H 1660 V 1068 H -1016 Z"
         id="path69" />
    </clipPath>
    <clipPath
       clipPathUnits="userSpaceOnUse"
       id="clipPath76">
      <path
         d="M -1016,-351 H 1660 V 1068 H -1016 Z"
         transform="translate(1.7857141e-5,-1.7857139e-4)"
         id="path76" />
    </clipPath>
    <clipPath
       clipPathUnits="userSpaceOnUse"
       id="clipPath78">
      <path
         d="M -9,-9 H 9 V 9 H -9 Z"
         id="path78" />
    </clipPath>
    <clipPath
       clipPathUnits="userSpaceOnUse"
       id="clipPath80">
      <path
         d="m 277.50875,187.90625 h 108 v 72 h -108 z"
         transform="matrix(1.3333333,0,0,-1.3333333,0,375.76583)"
         id="path80" />
    </clipPath>
    <clipPath
       clipPathUnits="userSpaceOnUse"
       id="clipPath81">
      <path
         d="M -9,-9 H 9 V 9 H -9 Z"
         transform="translate(2.9546001e-6)"
         id="path81" />
    </clipPath>
    <clipPath
       clipPathUnits="userSpaceOnUse"
       id="clipPath83">
      <path
         d="m 277.50875,187.90625 h 108 v 72 h -108 z"
         transform="matrix(1.3333333,0,0,-1.3333333,0,375.76583)"
         id="path83" />
    </clipPath>
    <clipPath
       clipPathUnits="userSpaceOnUse"
       id="clipPath84">
      <path
         d="M -9,-9 H 9 V 9 H -9 Z"
         transform="translate(-2.4999e-6)"
         id="path84" />
    </clipPath>
    <clipPath
       clipPathUnits="userSpaceOnUse"
       id="clipPath86">
      <path
         d="m 277.50875,187.90625 h 108 v 72 h -108 z"
         transform="matrix(1.3333333,0,0,-1.3333333,0,375.76583)"
         id="path86" />
    </clipPath>
    <clipPath
       clipPathUnits="userSpaceOnUse"
       id="clipPath87">
      <path
         d="M -9,-9 H 9 V 9 H -9 Z"
         id="path87" />
    </clipPath>
    <clipPath
       clipPathUnits="userSpaceOnUse"
       id="clipPath89">
      <path
         d="m 277.50875,187.90625 h 108 v 72 h -108 z"
         transform="matrix(1.3333333,0,0,-1.3333333,0,375.76583)"
         id="path89" />
    </clipPath>
    <clipPath
       clipPathUnits="userSpaceOnUse"
       id="clipPath90">
      <path
         d="M -9,-9 H 9 V 9 H -9 Z"
         transform="translate(1.5911e-6)"
         id="path90" />
    </clipPath>
    <clipPath
       clipPathUnits="userSpaceOnUse"
       id="clipPath92">
      <path
         d="m 277.50875,187.90625 h 108 v 72 h -108 z"
         transform="matrix(1.3333333,0,0,-1.3333333,0,375.76583)"
         id="path92" />
    </clipPath>
    <clipPath
       clipPathUnits="userSpaceOnUse"
       id="clipPath93">
      <path
         d="M -9,-9 H 9 V 9 H -9 Z"
         id="path93" />
    </clipPath>
    <clipPath
       clipPathUnits="userSpaceOnUse"
       id="clipPath95">
      <path
         d="m 277.50875,187.90625 h 108 v 72 h -108 z"
         transform="matrix(1.3333333,0,0,-1.3333333,0,375.76583)"
         id="path95" />
    </clipPath>
    <clipPath
       clipPathUnits="userSpaceOnUse"
       id="clipPath96">
      <path
         d="M -9,-9 H 9 V 9 H -9 Z"
         transform="translate(2.9546001e-6)"
         id="path96" />
    </clipPath>
    <clipPath
       clipPathUnits="userSpaceOnUse"
       id="clipPath98">
      <path
         d="m 277.50875,187.90625 h 108 v 72 h -108 z"
         transform="matrix(1.3333333,0,0,-1.3333333,0,375.76583)"
         id="path98" />
    </clipPath>
    <clipPath
       clipPathUnits="userSpaceOnUse"
       id="clipPath99">
      <path
         d="M -9,-9 H 9 V 9 H -9 Z"
         transform="translate(-2.4999e-6)"
         id="path99" />
    </clipPath>
    <clipPath
       clipPathUnits="userSpaceOnUse"
       id="clipPath101">
      <path
         d="m 277.50875,187.90625 h 108 v 72 h -108 z"
         transform="matrix(1.3333333,0,0,-1.3333333,0,375.76583)"
         id="path101" />
    </clipPath>
    <clipPath
       clipPathUnits="userSpaceOnUse"
       id="clipPath102">
      <path
         d="M -9,-9 H 9 V 9 H -9 Z"
         id="path102" />
    </clipPath>
    <clipPath
       clipPathUnits="userSpaceOnUse"
       id="clipPath104">
      <path
         d="m 277.50875,187.90625 h 108 v 72 h -108 z"
         transform="matrix(1.3333333,0,0,-1.3333333,0,375.76583)"
         id="path104" />
    </clipPath>
    <clipPath
       clipPathUnits="userSpaceOnUse"
       id="clipPath105">
      <path
         d="M -9,-9 H 9 V 9 H -9 Z"
         transform="translate(1.5911e-6)"
         id="path105" />
    </clipPath>
    <clipPath
       clipPathUnits="userSpaceOnUse"
       id="clipPath107">
      <path
         d="m 277.50875,187.90625 h 108 v 72 h -108 z"
         transform="matrix(1.3333333,0,0,-1.3333333,0,375.76583)"
         id="path107" />
    </clipPath>
  </defs>
  <sodipodi:namedview
     id="namedview1"
     pagecolor="#ffffff"
     bordercolor="#000000"
     borderopacity="0.25"
     inkscape:showpageshadow="2"
     inkscape:pageopacity="0.0"
     inkscape:pagecheckerboard="0"
     inkscape:deskcolor="#d1d1d1" />
  <g
     id="g1"
     inkscape:groupmode="layer"
     inkscape:label="1"
     transform="translate(-9.5846671,-9.9750003)">
    <path
       id="path2"
       d="m 78.886932,51.10625 v -3.5"
       style="fill:#ffffff;fill-opacity:1;fill-rule:nonzero;stroke:#ffffff;stroke-width:0.8;stroke-linecap:butt;stroke-linejoin:round;stroke-miterlimit:10;stroke-dasharray:none;stroke-opacity:1"
       transform="matrix(1.3333333,0,0,-1.3333333,0,375.76583)" />
    <text
       id="text2"
       xml:space="preserve"
       transform="matrix(1.3333333,0,0,1.3333333,102.02633,332.99917)"
       style="fill:#ffffff"><tspan
         style="font-variant:normal;font-weight:normal;font-size:16px;font-family:'DejaVu Sans';writing-mode:lr-tb;fill:#ffffff;fill-opacity:1;fill-rule:nonzero;stroke:none"
         x="0 3.640625"
         y="0"
         sodipodi:role="line"
         id="tspan2">/9</tspan></text>
    <g
       id="g4"
       style="fill:#ffffff">
      <path
         d="M 91,547 H 615 L 598,457 H 529 L 463,121 c -4,-24 -3,-41 3,-51 6,-10 17,-15 35,-15 5,0 11,0 19,2 7,0 12,1 14,1 L 521,-6 c -12,-4 -24,-7 -36,-9 -13,-2 -25,-3 -37,-3 -40,0 -65,11 -75,31 -11,21 -11,60 1,118 l 63,326 H 235 L 146,0 H 55 l 89,457 H 74 l 17,90"
         style="fill:#ffffff;fill-opacity:1;fill-rule:nonzero;stroke:none"
         transform="matrix(0.02133333,0,0,-0.02133333,89.182576,332.99917)"
         clip-path="url(#clipPath3)"
         id="path4" />
    </g>
    <path
       id="path5"
       d="m 154.97784,51.10625 v -3.5"
       style="fill:#ffffff;fill-opacity:1;fill-rule:nonzero;stroke:#ffffff;stroke-width:0.8;stroke-linecap:butt;stroke-linejoin:round;stroke-miterlimit:10;stroke-dasharray:none;stroke-opacity:1"
       transform="matrix(1.3333333,0,0,-1.3333333,0,375.76583)" />
    <text
       id="text5"
       xml:space="preserve"
       transform="matrix(1.3333333,0,0,1.3333333,175.97045,332.99917)"
       style="fill:#ffffff"><tspan
         style="font-variant:normal;font-weight:normal;font-size:16px;font-family:'DejaVu Sans';writing-mode:lr-tb;fill:#ffffff;fill-opacity:1;fill-rule:nonzero;stroke:none"
         x="0 19.8125 25.203125 35.382812"
         y="0"
         sodipodi:role="line"
         id="tspan5">5/36</tspan></text>
    <g
       id="g7"
       style="fill:#ffffff">
      <path
         d="M 91,547 H 615 L 598,457 H 529 L 463,121 c -4,-24 -3,-41 3,-51 6,-10 17,-15 35,-15 5,0 11,0 19,2 7,0 12,1 14,1 L 521,-6 c -12,-4 -24,-7 -36,-9 -13,-2 -25,-3 -37,-3 -40,0 -65,11 -75,31 -11,21 -11,60 1,118 l 63,326 H 235 L 146,0 H 55 l 89,457 H 74 l 17,90"
         style="fill:#ffffff;fill-opacity:1;fill-rule:nonzero;stroke:none"
         transform="matrix(0.02133333,0,0,-0.02133333,189.54337,332.99917)"
         clip-path="url(#clipPath6)"
         id="path7" />
    </g>
    <path
       id="path8"
       d="m 231.06875,51.10625 v -3.5"
       style="fill:#ffffff;fill-opacity:1;fill-rule:nonzero;stroke:#ffffff;stroke-width:0.8;stroke-linecap:butt;stroke-linejoin:round;stroke-miterlimit:10;stroke-dasharray:none;stroke-opacity:1"
       transform="matrix(1.3333333,0,0,-1.3333333,0,375.76583)" />
    <text
       id="text8"
       xml:space="preserve"
       transform="matrix(1.3333333,0,0,1.3333333,303.60208,332.99917)"
       style="fill:#ffffff"><tspan
         style="font-variant:normal;font-weight:normal;font-size:16px;font-family:'DejaVu Sans';writing-mode:lr-tb;fill:#ffffff;fill-opacity:1;fill-rule:nonzero;stroke:none"
         x="0 5.390625"
         y="0"
         sodipodi:role="line"
         id="tspan8">/6</tspan></text>
    <g
       id="g10"
       style="fill:#ffffff">
      <path
         d="M 91,547 H 615 L 598,457 H 529 L 463,121 c -4,-24 -3,-41 3,-51 6,-10 17,-15 35,-15 5,0 11,0 19,2 7,0 12,1 14,1 L 521,-6 c -12,-4 -24,-7 -36,-9 -13,-2 -25,-3 -37,-3 -40,0 -65,11 -75,31 -11,21 -11,60 1,118 l 63,326 H 235 L 146,0 H 55 l 89,457 H 74 l 17,90"
         style="fill:#ffffff;fill-opacity:1;fill-rule:nonzero;stroke:none"
         transform="matrix(0.02133333,0,0,-0.02133333,290.75833,332.99917)"
         clip-path="url(#clipPath9)"
         id="path10" />
    </g>
    <path
       id="path11"
       d="m 307.15966,51.10625 v -3.5"
       style="fill:#ffffff;fill-opacity:1;fill-rule:nonzero;stroke:#ffffff;stroke-width:0.8;stroke-linecap:butt;stroke-linejoin:round;stroke-miterlimit:10;stroke-dasharray:none;stroke-opacity:1"
       transform="matrix(1.3333333,0,0,-1.3333333,0,375.76583)" />
    <text
       id="text11"
       xml:space="preserve"
       transform="matrix(1.3333333,0,0,1.3333333,378.87955,332.99917)"
       style="fill:#ffffff"><tspan
         style="font-variant:normal;font-weight:normal;font-size:16px;font-family:'DejaVu Sans';writing-mode:lr-tb;fill:#ffffff;fill-opacity:1;fill-rule:nonzero;stroke:none"
         x="0 19.8125 25.203125 35.382812"
         y="0"
         sodipodi:role="line"
         id="tspan11">7/36</tspan></text>
    <g
       id="g13"
       style="fill:#ffffff">
      <path
         d="M 91,547 H 615 L 598,457 H 529 L 463,121 c -4,-24 -3,-41 3,-51 6,-10 17,-15 35,-15 5,0 11,0 19,2 7,0 12,1 14,1 L 521,-6 c -12,-4 -24,-7 -36,-9 -13,-2 -25,-3 -37,-3 -40,0 -65,11 -75,31 -11,21 -11,60 1,118 l 63,326 H 235 L 146,0 H 55 l 89,457 H 74 l 17,90"
         style="fill:#ffffff;fill-opacity:1;fill-rule:nonzero;stroke:none"
         transform="matrix(0.02133333,0,0,-0.02133333,392.45246,332.99917)"
         clip-path="url(#clipPath12)"
         id="path13" />
    </g>
    <path
       id="path14"
       d="m 383.25057,51.10625 v -3.5"
       style="fill:#ffffff;fill-opacity:1;fill-rule:nonzero;stroke:#ffffff;stroke-width:0.8;stroke-linecap:butt;stroke-linejoin:round;stroke-miterlimit:10;stroke-dasharray:none;stroke-opacity:1"
       transform="matrix(1.3333333,0,0,-1.3333333,0,375.76583)" />
    <text
       id="text14"
       xml:space="preserve"
       transform="matrix(1.3333333,0,0,1.3333333,488.33409,332.99917)"
       style="fill:#ffffff"><tspan
         style="font-variant:normal;font-weight:normal;font-size:16px;font-family:'DejaVu Sans';writing-mode:lr-tb;fill:#ffffff;fill-opacity:1;fill-rule:nonzero;stroke:none"
         x="0 19.8125 23.453125"
         y="0"
         sodipodi:role="line"
         id="tspan14">2/9</tspan></text>
    <g
       id="g16"
       style="fill:#ffffff">
      <path
         d="M 91,547 H 615 L 598,457 H 529 L 463,121 c -4,-24 -3,-41 3,-51 6,-10 17,-15 35,-15 5,0 11,0 19,2 7,0 12,1 14,1 L 521,-6 c -12,-4 -24,-7 -36,-9 -13,-2 -25,-3 -37,-3 -40,0 -65,11 -75,31 -11,21 -11,60 1,118 l 63,326 H 235 L 146,0 H 55 l 89,457 H 74 l 17,90"
         style="fill:#ffffff;fill-opacity:1;fill-rule:nonzero;stroke:none"
         transform="matrix(0.02133333,0,0,-0.02133333,501.90701,332.99917)"
         clip-path="url(#clipPath15)"
         id="path16" />
    </g>
    <text
       id="text16"
       xml:space="preserve"
       transform="matrix(1.3333333,0,0,1.3333333,286.10859,360.91583)"
       style="fill:#ffffff"><tspan
         style="font-variant:normal;font-weight:normal;font-size:18px;font-family:'DejaVu Sans';writing-mode:lr-tb;fill:#ffffff;fill-opacity:1;fill-rule:nonzero;stroke:none"
         x="0 7.0224609 14.422852 25.453125 36.878906"
         y="0"
         sodipodi:role="line"
         id="tspan16">[rad]</tspan></text>
    <g
       id="g18"
       style="fill:#ffffff">
      <path
         d="M 455,347 H 145 c -14,-98 -14,-167 0,-208 18,-51 51,-76 100,-76 48,0 91,25 129,76 32,45 59,114 81,208 m 15,83 c 8,92 7,154 -4,187 -18,51 -51,77 -98,77 -50,0 -94,-26 -130,-76 -29,-41 -54,-104 -76,-188 h 308 m -88,338 c 78,0 132,-35 164,-104 31,-69 35,-164 11,-286 C 533,256 493,161 435,93 377,24 308,-10 230,-10 152,-10 97,24 66,93 35,161 31,256 55,378 c 24,122 64,217 122,286 58,69 126,104 205,104"
         style="fill:#ffffff;fill-opacity:1;fill-rule:nonzero;stroke:none"
         transform="matrix(0.024,0,0,-0.024,271.425,360.91583)"
         clip-path="url(#clipPath17)"
         id="path18" />
    </g>
    <path
       id="path19"
       d="m 63.66875,51.10625 h -3.5"
       style="fill:#ffffff;fill-opacity:1;fill-rule:nonzero;stroke:#ffffff;stroke-width:0.8;stroke-linecap:butt;stroke-linejoin:round;stroke-miterlimit:10;stroke-dasharray:none;stroke-opacity:1"
       transform="matrix(1.3333333,0,0,-1.3333333,0,375.76583)" />
    <text
       id="text19"
       xml:space="preserve"
       transform="matrix(1.3333333,0,0,1.3333333,41.6,315.72833)"
       style="fill:#ffffff"><tspan
         style="font-variant:normal;font-weight:normal;font-size:16px;font-family:'DejaVu Sans';writing-mode:lr-tb;fill:#ffffff;fill-opacity:1;fill-rule:nonzero;stroke:none"
         x="0 10.176 15.264"
         y="0"
         sodipodi:role="line"
         id="tspan19">1.6</tspan></text>
    <path
       id="path20"
       d="m 63.66875,123.58625 h -3.5"
       style="fill:#ffffff;fill-opacity:1;fill-rule:nonzero;stroke:#ffffff;stroke-width:0.8;stroke-linecap:butt;stroke-linejoin:round;stroke-miterlimit:10;stroke-dasharray:none;stroke-opacity:1"
       transform="matrix(1.3333333,0,0,-1.3333333,0,375.76583)" />
    <text
       id="text20"
       xml:space="preserve"
       transform="matrix(1.3333333,0,0,1.3333333,41.6,219.08833)"
       style="fill:#ffffff"><tspan
         style="font-variant:normal;font-weight:normal;font-size:16px;font-family:'DejaVu Sans';writing-mode:lr-tb;fill:#ffffff;fill-opacity:1;fill-rule:nonzero;stroke:none"
         x="0 10.176 15.264"
         y="0"
         sodipodi:role="line"
         id="tspan20">1.8</tspan></text>
    <path
       id="path21"
       d="m 63.66875,196.06625 h -3.5"
       style="fill:#ffffff;fill-opacity:1;fill-rule:nonzero;stroke:#ffffff;stroke-width:0.8;stroke-linecap:butt;stroke-linejoin:round;stroke-miterlimit:10;stroke-dasharray:none;stroke-opacity:1"
       transform="matrix(1.3333333,0,0,-1.3333333,0,375.76583)" />
    <text
       id="text21"
       xml:space="preserve"
       transform="matrix(1.3333333,0,0,1.3333333,41.6,122.44833)"
       style="fill:#ffffff"><tspan
         style="font-variant:normal;font-weight:normal;font-size:16px;font-family:'DejaVu Sans';writing-mode:lr-tb;fill:#ffffff;fill-opacity:1;fill-rule:nonzero;stroke:none"
         x="0 10.176 15.264"
         y="0"
         sodipodi:role="line"
         id="tspan21">2.0</tspan></text>
    <path
       id="path22"
       d="m 63.66875,268.54625 h -3.5"
       style="fill:#ffffff;fill-opacity:1;fill-rule:nonzero;stroke:#ffffff;stroke-width:0.8;stroke-linecap:butt;stroke-linejoin:round;stroke-miterlimit:10;stroke-dasharray:none;stroke-opacity:1"
       transform="matrix(1.3333333,0,0,-1.3333333,0,375.76583)" />
    <text
       id="text22"
       xml:space="preserve"
       transform="matrix(1.3333333,0,0,1.3333333,41.6,25.808333)"
       style="fill:#ffffff"><tspan
         style="font-variant:normal;font-weight:normal;font-size:16px;font-family:'DejaVu Sans';writing-mode:lr-tb;fill:#ffffff;fill-opacity:1;fill-rule:nonzero;stroke:none"
         x="0 10.176 15.264"
         y="0"
         sodipodi:role="line"
         id="tspan22">2.2</tspan></text>
    <text
       id="text23"
       xml:space="preserve"
       transform="matrix(0,-1.3333333,1.3333333,0,34.710417,171.81339)"
       style="fill:#ffffff"><tspan
         style="font-variant:normal;font-weight:normal;font-size:8.82px;font-family:'DejaVu Sans';writing-mode:lr-tb;fill:#ffffff;fill-opacity:1;fill-rule:nonzero;stroke:none"
         x="0"
         y="0"
         id="tspan23">0</tspan><tspan
         style="font-variant:normal;font-weight:normal;font-size:18px;font-family:'DejaVu Sans';writing-mode:lr-tb;fill:#ffffff;fill-opacity:1;fill-rule:nonzero;stroke:none"
         x="6.4482713 24.483427"
         y="-5.0203123"
         sodipodi:role="line"
         id="tspan24">()</tspan></text>
    <g
       id="g25"
       style="fill:#ffffff">
      <path
         d="M 300,-121 264,65 62,-207 H -43 l 286,385 -45,230 c -8,41 -37,62 -87,62 H 87 l 15,77 34,-1 c 84,-3 131,-31 141,-85 L 313,274 516,547 H 622 L 335,161 379,-68 c 8,-41 37,-62 87,-62 h 24 l -14,-77 -35,1 c -84,2 -131,31 -141,85"
         style="fill:#ffffff;fill-opacity:1;fill-rule:nonzero;stroke:none"
         transform="matrix(0,-0.024,-0.024,0,28.016667,196.66417)"
         clip-path="url(#clipPath24)"
         id="path25" />
    </g>
    <g
       id="g27"
       style="fill:#ffffff">
      <path
         d="m 347,476 c -50,0 -92,-18 -125,-54 -36,-38 -59,-87 -71,-149 -13,-66 -9,-117 12,-155 20,-38 55,-56 104,-56 47,0 88,19 124,57 35,37 59,88 72,154 11,59 7,109 -13,149 -19,36 -53,54 -103,54 m 14,71 H 659 L 642,457 H 541 C 566,406 572,345 559,273 541,183 505,113 451,63 396,12 329,-13 251,-13 173,-13 116,12 82,63 47,113 39,183 57,273 c 17,90 53,160 107,211 45,42 111,63 197,63"
         style="fill:#ffffff;fill-opacity:1;fill-rule:nonzero;stroke:none"
         transform="matrix(0,-0.0168,-0.0168,0,31.954167,182.46104)"
         clip-path="url(#clipPath26)"
         id="path27" />
    </g>
    <g
       id="g29"
       style="fill:#ffffff">
      <path
         d="M 455,347 H 145 c -14,-98 -14,-167 0,-208 18,-51 51,-76 100,-76 48,0 91,25 129,76 32,45 59,114 81,208 m 15,83 c 8,92 7,154 -4,187 -18,51 -51,77 -98,77 -50,0 -94,-26 -130,-76 -29,-41 -54,-104 -76,-188 h 308 m -88,338 c 78,0 132,-35 164,-104 31,-69 35,-164 11,-286 C 533,256 493,161 435,93 377,24 308,-10 230,-10 152,-10 97,24 66,93 35,161 31,256 55,378 c 24,122 64,217 122,286 58,69 126,104 205,104"
         style="fill:#ffffff;fill-opacity:1;fill-rule:nonzero;stroke:none"
         transform="matrix(0,-0.024,-0.024,0,28.016667,153.85241)"
         clip-path="url(#clipPath28)"
         id="path29" />
    </g>
    <path
       id="path30"
       d="m 78.886932,203.61959 v 22.47097"
       style="fill:none;stroke:#1f77b4;stroke-width:1.5;stroke-linecap:butt;stroke-linejoin:round;stroke-miterlimit:10;stroke-dasharray:none;stroke-opacity:1"
       transform="matrix(1.3333333,0,0,-1.3333333,0,375.76583)"
       clip-path="url(#clipPath31)" />
    <path
       id="path32"
       d="m 154.97784,156.7155 v 24.31583"
       style="fill:none;stroke:#1f77b4;stroke-width:1.5;stroke-linecap:butt;stroke-linejoin:round;stroke-miterlimit:10;stroke-dasharray:none;stroke-opacity:1"
       transform="matrix(1.3333333,0,0,-1.3333333,0,375.76583)"
       clip-path="url(#clipPath33)" />
    <path
       id="path34"
       d="M 231.06875,120.95499 V 144.2078"
       style="fill:none;stroke:#1f77b4;stroke-width:1.5;stroke-linecap:butt;stroke-linejoin:round;stroke-miterlimit:10;stroke-dasharray:none;stroke-opacity:1"
       transform="matrix(1.3333333,0,0,-1.3333333,0,375.76583)"
       clip-path="url(#clipPath35)" />
    <path
       id="path36"
       d="M 307.15966,98.086816 V 122.67824"
       style="fill:none;stroke:#1f77b4;stroke-width:1.5;stroke-linecap:butt;stroke-linejoin:round;stroke-miterlimit:10;stroke-dasharray:none;stroke-opacity:1"
       transform="matrix(1.3333333,0,0,-1.3333333,0,375.76583)"
       clip-path="url(#clipPath37)" />
    <path
       id="path38"
       d="M 383.25057,93.517916 V 115.40444"
       style="fill:none;stroke:#1f77b4;stroke-width:1.5;stroke-linecap:butt;stroke-linejoin:round;stroke-miterlimit:10;stroke-dasharray:none;stroke-opacity:1"
       transform="matrix(1.3333333,0,0,-1.3333333,0,375.76583)"
       clip-path="url(#clipPath39)" />
    <path
       id="path40"
       d="m 48.450568,231.73973 15.218182,-12.022 15.218182,-11.05904 15.218182,-10.22028 15.218186,-9.48435 15.21818,-8.83437 15.21818,-8.25689 15.21818,-7.74105 15.21818,-7.27795 15.21818,-6.86034 15.21819,-6.48217 15.21818,-6.13836 15.21818,-5.82471 15.21818,-5.5376 15.21818,-5.27398 15.21818,-5.03122 15.21819,-4.80708 15.21818,-4.59958 15.21818,-4.40706 15.21818,-4.228015 15.21819,-4.061161 15.21818,-3.905357 15.21818,-3.759592 15.21818,-3.622981 9.98182,-2.292242"
       style="fill:none;stroke:#ffffff;stroke-width:1.5;stroke-linecap:butt;stroke-linejoin:round;stroke-miterlimit:10;stroke-dasharray:5.55, 2.4;stroke-dashoffset:0;stroke-opacity:1"
       transform="matrix(1.3333333,0,0,-1.3333333,0,375.76583)"
       clip-path="url(#clipPath41)" />
    <g
       id="g43"
       clip-path="url(#clipPath44)">
      <path
         d="M -3,-3 H 3 V 3 H -3 Z"
         style="fill:#1f77b4;fill-opacity:1;fill-rule:nonzero;stroke:#1f77b4;stroke-width:1;stroke-linecap:butt;stroke-linejoin:miter;stroke-miterlimit:10;stroke-dasharray:none;stroke-opacity:1"
         transform="matrix(1.3333333,0,0,-1.3333333,105.18258,89.292404)"
         clip-path="url(#clipPath42)"
         id="path43" />
    </g>
    <g
       id="g46"
       clip-path="url(#clipPath47)">
      <path
         d="M -3,-3 H 3 V 3 H -3 Z"
         style="fill:#1f77b4;fill-opacity:1;fill-rule:nonzero;stroke:#1f77b4;stroke-width:1;stroke-linecap:butt;stroke-linejoin:miter;stroke-miterlimit:10;stroke-dasharray:none;stroke-opacity:1"
         transform="matrix(1.3333333,0,0,-1.3333333,206.63712,150.60128)"
         clip-path="url(#clipPath45)"
         id="path46" />
    </g>
    <g
       id="g49"
       clip-path="url(#clipPath50)">
      <path
         d="M -3,-3 H 3 V 3 H -3 Z"
         style="fill:#1f77b4;fill-opacity:1;fill-rule:nonzero;stroke:#1f77b4;stroke-width:1;stroke-linecap:butt;stroke-linejoin:miter;stroke-miterlimit:10;stroke-dasharray:none;stroke-opacity:1"
         transform="matrix(1.3333333,0,0,-1.3333333,308.09167,198.99064)"
         clip-path="url(#clipPath48)"
         id="path49" />
    </g>
    <g
       id="g52"
       clip-path="url(#clipPath53)">
      <path
         d="M -3,-3 H 3 V 3 H -3 Z"
         style="fill:#1f77b4;fill-opacity:1;fill-rule:nonzero;stroke:#1f77b4;stroke-width:1;stroke-linecap:butt;stroke-linejoin:miter;stroke-miterlimit:10;stroke-dasharray:none;stroke-opacity:1"
         transform="matrix(1.3333333,0,0,-1.3333333,409.54621,228.58913)"
         clip-path="url(#clipPath51)"
         id="path52" />
    </g>
    <g
       id="g55"
       clip-path="url(#clipPath56)">
      <path
         d="M -3,-3 H 3 V 3 H -3 Z"
         style="fill:#1f77b4;fill-opacity:1;fill-rule:nonzero;stroke:#1f77b4;stroke-width:1;stroke-linecap:butt;stroke-linejoin:miter;stroke-miterlimit:10;stroke-dasharray:none;stroke-opacity:1"
         transform="matrix(1.3333333,0,0,-1.3333333,511.00076,236.48426)"
         clip-path="url(#clipPath54)"
         id="path55" />
    </g>
    <path
       id="path57"
       d="m 63.66875,51.10625 v 217.44"
       style="fill:#ffffff;stroke:#ffffff;stroke-width:0.8;stroke-linecap:square;stroke-linejoin:miter;stroke-miterlimit:10;stroke-dasharray:none;stroke-opacity:1"
       transform="matrix(1.3333333,0,0,-1.3333333,0,375.76583)" />
    <path
       id="path59"
       d="m 63.66875,51.10625 h 334.8"
       style="fill:#ffffff;stroke:#ffffff;stroke-width:0.8;stroke-linecap:square;stroke-linejoin:miter;stroke-miterlimit:10;stroke-dasharray:none;stroke-opacity:1"
       transform="matrix(1.3333333,0,0,-1.3333333,0,375.76583)" />
    <path
       id="path63"
       d="m 282.41784,187.90625 v -3.5"
       style="fill:#ffffff;fill-opacity:1;fill-rule:nonzero;stroke:#ffffff;stroke-width:0.8;stroke-linecap:butt;stroke-linejoin:round;stroke-miterlimit:10;stroke-dasharray:none;stroke-opacity:1"
       transform="matrix(1.3333333,0,0,-1.3333333,0,375.76583)" />
    <path
       id="path64"
       d="m 306.96329,187.90625 v -3.5"
       style="fill:#ffffff;fill-opacity:1;fill-rule:nonzero;stroke:#ffffff;stroke-width:0.8;stroke-linecap:butt;stroke-linejoin:round;stroke-miterlimit:10;stroke-dasharray:none;stroke-opacity:1"
       transform="matrix(1.3333333,0,0,-1.3333333,0,375.76583)" />
    <path
       id="path65"
       d="m 331.50875,187.90625 v -3.5"
       style="fill:#ffffff;fill-opacity:1;fill-rule:nonzero;stroke:#ffffff;stroke-width:0.8;stroke-linecap:butt;stroke-linejoin:round;stroke-miterlimit:10;stroke-dasharray:none;stroke-opacity:1"
       transform="matrix(1.3333333,0,0,-1.3333333,0,375.76583)" />
    <path
       id="path66"
       d="m 356.05421,187.90625 v -3.5"
       style="fill:#ffffff;fill-opacity:1;fill-rule:nonzero;stroke:#ffffff;stroke-width:0.8;stroke-linecap:butt;stroke-linejoin:round;stroke-miterlimit:10;stroke-dasharray:none;stroke-opacity:1"
       transform="matrix(1.3333333,0,0,-1.3333333,0,375.76583)" />
    <path
       id="path67"
       d="m 380.59966,187.90625 v -3.5"
       style="fill:#ffffff;fill-opacity:1;fill-rule:nonzero;stroke:#ffffff;stroke-width:0.8;stroke-linecap:butt;stroke-linejoin:round;stroke-miterlimit:10;stroke-dasharray:none;stroke-opacity:1"
       transform="matrix(1.3333333,0,0,-1.3333333,0,375.76583)" />
    <text
       id="text67"
       xml:space="preserve"
       transform="matrix(1.3333333,0,0,1.3333333,424.76557,153.745)"
       style="fill:#ffffff"><tspan
         style="font-variant:normal;font-weight:normal;font-size:14px;font-family:'DejaVu Sans';writing-mode:lr-tb;fill:#ffffff;fill-opacity:1;fill-rule:nonzero;stroke:none"
         x="0"
         y="0"
         id="tspan67">[</tspan><tspan
         style="font-style:oblique;font-variant:normal;font-weight:normal;font-size:14px;font-family:'DejaVu Sans';writing-mode:lr-tb;fill:#ffffff;fill-opacity:1;fill-rule:nonzero;stroke:none"
         x="5.4619141 11.217773 19.796875"
         y="0"
         sodipodi:role="line"
         id="tspan68">rad</tspan><tspan
         style="font-variant:normal;font-weight:normal;font-size:14px;font-family:'DejaVu Sans';writing-mode:lr-tb;fill:#ffffff;fill-opacity:1;fill-rule:nonzero;stroke:none"
         x="28.683594"
         y="0"
         id="tspan69">]</tspan></text>
    <g
       id="g70"
       style="fill:#ffffff">
      <path
         d="M 455,347 H 145 c -14,-98 -14,-167 0,-208 18,-51 51,-76 100,-76 48,0 91,25 129,76 32,45 59,114 81,208 m 15,83 c 8,92 7,154 -4,187 -18,51 -51,77 -98,77 -50,0 -94,-26 -130,-76 -29,-41 -54,-104 -76,-188 h 308 m -88,338 c 78,0 132,-35 164,-104 31,-69 35,-164 11,-286 C 533,256 493,161 435,93 377,24 308,-10 230,-10 152,-10 97,24 66,93 35,161 31,256 55,378 c 24,122 64,217 122,286 58,69 126,104 205,104"
         style="fill:#ffffff;fill-opacity:1;fill-rule:nonzero;stroke:none"
         transform="matrix(0.01866667,0,0,-0.01866667,413.345,153.745)"
         clip-path="url(#clipPath69)"
         id="path70" />
    </g>
    <path
       id="path71"
       d="m 277.50875,205.90625 h -3.5"
       style="fill:#000000;fill-opacity:1;fill-rule:nonzero;stroke:#ffffff;stroke-width:0.8;stroke-linecap:butt;stroke-linejoin:round;stroke-miterlimit:10;stroke-dasharray:none;stroke-opacity:1"
       transform="matrix(1.3333333,0,0,-1.3333333,0,375.76583)" />
    <text
       id="text71"
       xml:space="preserve"
       transform="matrix(1.3333333,0,0,1.3333333,352.19917,106.28667)"
       style="fill:#ffffff"><tspan
         style="font-variant:normal;font-weight:normal;font-size:10px;font-family:'DejaVu Sans';writing-mode:lr-tb;fill:#ffffff;fill-opacity:1;fill-rule:nonzero;stroke:none"
         x="0"
         y="0"
         id="tspan71">1</tspan></text>
    <path
       id="path72"
       d="m 277.50875,241.90625 h -3.5"
       style="fill:#000000;fill-opacity:1;fill-rule:nonzero;stroke:#ffffff;stroke-width:0.8;stroke-linecap:butt;stroke-linejoin:round;stroke-miterlimit:10;stroke-dasharray:none;stroke-opacity:1"
       transform="matrix(1.3333333,0,0,-1.3333333,0,375.76583)" />
    <text
       id="text72"
       xml:space="preserve"
       transform="matrix(1.3333333,0,0,1.3333333,352.19917,58.286667)"
       style="fill:#ffffff"><tspan
         style="font-variant:normal;font-weight:normal;font-size:10px;font-family:'DejaVu Sans';writing-mode:lr-tb;fill:#ffffff;fill-opacity:1;fill-rule:nonzero;stroke:none"
         x="0"
         y="0"
         id="tspan72">2</tspan></text>
    <text
       id="text73"
       xml:space="preserve"
       transform="matrix(0,-1.3333333,1.3333333,0,344.86583,85.985885)"
       style="fill:#ffffff"><tspan
         style="font-style:oblique;font-variant:normal;font-weight:normal;font-size:9.8px;font-family:'DejaVu Sans';writing-mode:lr-tb;fill:#ffffff;fill-opacity:1;fill-rule:nonzero;stroke:none"
         x="0"
         y="0"
         id="tspan73">r</tspan><tspan
         style="font-variant:normal;font-weight:normal;font-size:14px;font-family:'DejaVu Sans';writing-mode:lr-tb;fill:#ffffff;fill-opacity:1;fill-rule:nonzero;stroke:none"
         x="4.4119139"
         y="-2.296875"
         id="tspan74">/</tspan><tspan
         style="font-style:oblique;font-variant:normal;font-weight:normal;font-size:14px;font-family:'DejaVu Sans';writing-mode:lr-tb;fill:#ffffff;fill-opacity:1;fill-rule:nonzero;stroke:none"
         x="9.1287107"
         y="-2.296875"
         id="tspan75">t</tspan><tspan
         style="font-variant:normal;font-weight:normal;font-size:9.8px;font-family:'DejaVu Sans';writing-mode:lr-tb;fill:#ffffff;fill-opacity:1;fill-rule:nonzero;stroke:none"
         x="14.617969"
         y="0"
         id="tspan76">0</tspan></text>
    <g
       id="g77"
       style="fill:#ffffff">
      <path
         d="m 329,100 c 8,-16 30,-24 66,-24 h 43 L 423,0 h -54 c -59,0 -99,15 -119,47 -21,32 -24,82 -10,151 l 50,259 H 84 l 18,90 H 606 L 589,457 H 382 L 330,193 c -10,-48 -10,-79 -1,-93"
         style="fill:#ffffff;fill-opacity:1;fill-rule:nonzero;stroke:none"
         transform="matrix(0,-0.01866667,-0.01866667,0,341.80333,97.224167)"
         clip-path="url(#clipPath76)"
         id="path77" />
    </g>
    <g
       id="g79"
       clip-path="url(#clipPath80)">
      <path
         d="m 0,-4 c 1.060812,0 2.078319,0.421465 2.828427,1.171573 C 3.578535,-2.078319 4,-1.060812 4,0 4,1.060812 3.578535,2.078319 2.828427,2.828427 2.078319,3.578535 1.060812,4 0,4 -1.060812,4 -2.078319,3.578535 -2.828427,2.828427 -3.578535,2.078319 -4,1.060812 -4,0 -4,-1.060812 -3.578535,-2.078319 -2.828427,-2.828427 -2.078319,-3.578535 -1.060812,-4 0,-4 Z"
         style="fill:#ff7f0e;fill-opacity:1;fill-rule:nonzero;stroke:#ff7f0e;stroke-width:1;stroke-linecap:butt;stroke-linejoin:round;stroke-miterlimit:10;stroke-dasharray:none;stroke-opacity:1"
         transform="matrix(1.3333333,0,0,-1.3333333,376.55712,59.049292)"
         clip-path="url(#clipPath78)"
         id="path79" />
    </g>
    <g
       id="g82"
       clip-path="url(#clipPath83)">
      <path
         d="m 0,-4 c 1.060812,0 2.078319,0.421465 2.828427,1.171573 C 3.578535,-2.078319 4,-1.060812 4,0 4,1.060812 3.578535,2.078319 2.828427,2.828427 2.078319,3.578535 1.060812,4 0,4 -1.060812,4 -2.078319,3.578535 -2.828427,2.828427 -3.578535,2.078319 -4,1.060812 -4,0 -4,-1.060812 -3.578535,-2.078319 -2.828427,-2.828427 -2.078319,-3.578535 -1.060812,-4 0,-4 Z"
         style="fill:#ff7f0e;fill-opacity:1;fill-rule:nonzero;stroke:#ff7f0e;stroke-width:1;stroke-linecap:butt;stroke-linejoin:round;stroke-miterlimit:10;stroke-dasharray:none;stroke-opacity:1"
         transform="matrix(1.3333333,0,0,-1.3333333,409.28439,60.980335)"
         clip-path="url(#clipPath81)"
         id="path82" />
    </g>
    <g
       id="g85"
       clip-path="url(#clipPath86)">
      <path
         d="m 0,-4 c 1.060812,0 2.078319,0.421465 2.828427,1.171573 C 3.578535,-2.078319 4,-1.060812 4,0 4,1.060812 3.578535,2.078319 2.828427,2.828427 2.078319,3.578535 1.060812,4 0,4 -1.060812,4 -2.078319,3.578535 -2.828427,2.828427 -3.578535,2.078319 -4,1.060812 -4,0 -4,-1.060812 -3.578535,-2.078319 -2.828427,-2.828427 -2.078319,-3.578535 -1.060812,-4 0,-4 Z"
         style="fill:#ff7f0e;fill-opacity:1;fill-rule:nonzero;stroke:#ff7f0e;stroke-width:1;stroke-linecap:butt;stroke-linejoin:round;stroke-miterlimit:10;stroke-dasharray:none;stroke-opacity:1"
         transform="matrix(1.3333333,0,0,-1.3333333,442.01167,59.75333)"
         clip-path="url(#clipPath84)"
         id="path85" />
    </g>
    <g
       id="g88"
       clip-path="url(#clipPath89)">
      <path
         d="m 0,-4 c 1.060812,0 2.078319,0.421465 2.828427,1.171573 C 3.578535,-2.078319 4,-1.060812 4,0 4,1.060812 3.578535,2.078319 2.828427,2.828427 2.078319,3.578535 1.060812,4 0,4 -1.060812,4 -2.078319,3.578535 -2.828427,2.828427 -3.578535,2.078319 -4,1.060812 -4,0 -4,-1.060812 -3.578535,-2.078319 -2.828427,-2.828427 -2.078319,-3.578535 -1.060812,-4 0,-4 Z"
         style="fill:#ff7f0e;fill-opacity:1;fill-rule:nonzero;stroke:#ff7f0e;stroke-width:1;stroke-linecap:butt;stroke-linejoin:round;stroke-miterlimit:10;stroke-dasharray:none;stroke-opacity:1"
         transform="matrix(1.3333333,0,0,-1.3333333,474.73894,58.787152)"
         clip-path="url(#clipPath87)"
         id="path88" />
    </g>
    <g
       id="g91"
       clip-path="url(#clipPath92)">
      <path
         d="m 0,-4 c 1.060812,0 2.078319,0.421465 2.828427,1.171573 C 3.578535,-2.078319 4,-1.060812 4,0 4,1.060812 3.578535,2.078319 2.828427,2.828427 2.078319,3.578535 1.060812,4 0,4 -1.060812,4 -2.078319,3.578535 -2.828427,2.828427 -3.578535,2.078319 -4,1.060812 -4,0 -4,-1.060812 -3.578535,-2.078319 -2.828427,-2.828427 -2.078319,-3.578535 -1.060812,-4 0,-4 Z"
         style="fill:#ff7f0e;fill-opacity:1;fill-rule:nonzero;stroke:#ff7f0e;stroke-width:1;stroke-linecap:butt;stroke-linejoin:round;stroke-miterlimit:10;stroke-dasharray:none;stroke-opacity:1"
         transform="matrix(1.3333333,0,0,-1.3333333,507.46621,53.554039)"
         clip-path="url(#clipPath90)"
         id="path91" />
    </g>
    <g
       id="g94"
       clip-path="url(#clipPath95)">
      <path
         d="M 0,4 -4,-4 H 4 Z"
         style="fill:#2ca02c;fill-opacity:1;fill-rule:nonzero;stroke:#2ca02c;stroke-width:1;stroke-linecap:butt;stroke-linejoin:miter;stroke-miterlimit:10;stroke-dasharray:none;stroke-opacity:1"
         transform="matrix(1.3333333,0,0,-1.3333333,376.55712,105.27599)"
         clip-path="url(#clipPath93)"
         id="path94" />
    </g>
    <g
       id="g97"
       clip-path="url(#clipPath98)">
      <path
         d="M 0,4 -4,-4 H 4 Z"
         style="fill:#2ca02c;fill-opacity:1;fill-rule:nonzero;stroke:#2ca02c;stroke-width:1;stroke-linecap:butt;stroke-linejoin:miter;stroke-miterlimit:10;stroke-dasharray:none;stroke-opacity:1"
         transform="matrix(1.3333333,0,0,-1.3333333,409.28439,103.38237)"
         clip-path="url(#clipPath96)"
         id="path97" />
    </g>
    <g
       id="g100"
       clip-path="url(#clipPath101)">
      <path
         d="M 0,4 -4,-4 H 4 Z"
         style="fill:#2ca02c;fill-opacity:1;fill-rule:nonzero;stroke:#2ca02c;stroke-width:1;stroke-linecap:butt;stroke-linejoin:miter;stroke-miterlimit:10;stroke-dasharray:none;stroke-opacity:1"
         transform="matrix(1.3333333,0,0,-1.3333333,442.01167,100.19424)"
         clip-path="url(#clipPath99)"
         id="path100" />
    </g>
    <g
       id="g103"
       clip-path="url(#clipPath104)">
      <path
         d="M 0,4 -4,-4 H 4 Z"
         style="fill:#2ca02c;fill-opacity:1;fill-rule:nonzero;stroke:#2ca02c;stroke-width:1;stroke-linecap:butt;stroke-linejoin:miter;stroke-miterlimit:10;stroke-dasharray:none;stroke-opacity:1"
         transform="matrix(1.3333333,0,0,-1.3333333,474.73894,97.943398)"
         clip-path="url(#clipPath102)"
         id="path103" />
    </g>
    <g
       id="g106"
       clip-path="url(#clipPath107)">
      <path
         d="M 0,4 -4,-4 H 4 Z"
         style="fill:#2ca02c;fill-opacity:1;fill-rule:nonzero;stroke:#2ca02c;stroke-width:1;stroke-linecap:butt;stroke-linejoin:miter;stroke-miterlimit:10;stroke-dasharray:none;stroke-opacity:1"
         transform="matrix(1.3333333,0,0,-1.3333333,507.46621,94.468746)"
         clip-path="url(#clipPath105)"
         id="path106" />
    </g>
    <path
       id="path108"
       d="m 277.50875,187.90625 v 72"
       style="fill:none;stroke:#ffffff;stroke-width:0.8;stroke-linecap:square;stroke-linejoin:miter;stroke-miterlimit:10;stroke-dasharray:none;stroke-opacity:1"
       transform="matrix(1.3333333,0,0,-1.3333333,0,375.76583)" />
    <path
       id="path110"
       d="m 277.50875,187.90625 h 108"
       style="fill:#ffffff;stroke:#ffffff;stroke-width:0.8;stroke-linecap:square;stroke-linejoin:miter;stroke-miterlimit:10;stroke-dasharray:none;stroke-opacity:1"
       transform="matrix(1.3333333,0,0,-1.3333333,0,375.76583)" />
    <g
       id="g112"
       clip-path="url(#clipPath80)"
       transform="translate(-264,160)">
      <path
         d="m 0,-4 c 1.060812,0 2.078319,0.421465 2.828427,1.171573 C 3.578535,-2.078319 4,-1.060812 4,0 4,1.060812 3.578535,2.078319 2.828427,2.828427 2.078319,3.578535 1.060812,4 0,4 -1.060812,4 -2.078319,3.578535 -2.828427,2.828427 -3.578535,2.078319 -4,1.060812 -4,0 -4,-1.060812 -3.578535,-2.078319 -2.828427,-2.828427 -2.078319,-3.578535 -1.060812,-4 0,-4 Z"
         style="fill:#ff7f0e;fill-opacity:1;fill-rule:nonzero;stroke:#ff7f0e;stroke-width:1;stroke-linecap:butt;stroke-linejoin:round;stroke-miterlimit:10;stroke-dasharray:none;stroke-opacity:1"
         transform="matrix(1.3333333,0,0,-1.3333333,376.55712,59.049292)"
         clip-path="url(#clipPath78)"
         id="path112" />
    </g>
    <g
       id="g113"
       clip-path="url(#clipPath95)"
       transform="translate(-264,144)">
      <path
         d="M 0,4 -4,-4 H 4 Z"
         style="fill:#2ca02c;fill-opacity:1;fill-rule:nonzero;stroke:#2ca02c;stroke-width:1;stroke-linecap:butt;stroke-linejoin:miter;stroke-miterlimit:10;stroke-dasharray:none;stroke-opacity:1"
         transform="matrix(1.3333333,0,0,-1.3333333,376.55712,105.27599)"
         clip-path="url(#clipPath93)"
         id="path113" />
    </g>
    <g
       id="g114"
       clip-path="url(#clipPath47)"
       transform="translate(-94,128)">
      <path
         d="M -3,-3 H 3 V 3 H -3 Z"
         style="fill:#1f77b4;fill-opacity:1;fill-rule:nonzero;stroke:#1f77b4;stroke-width:1;stroke-linecap:butt;stroke-linejoin:miter;stroke-miterlimit:10;stroke-dasharray:none;stroke-opacity:1"
         transform="matrix(1.3333333,0,0,-1.3333333,206.63712,150.60128)"
         clip-path="url(#clipPath45)"
         id="path114" />
    </g>
    <text
       id="text114"
       xml:space="preserve"
       x="125.97044"
       y="226.99918"
       style="font-size:16px;fill:#ffffff;stroke-width:1.33333"><tspan
         style="font-variant:normal;font-weight:normal;font-size:21.3333px;font-family:'DejaVu Sans';writing-mode:lr-tb;fill:#ffffff;fill-opacity:1;fill-rule:nonzero;stroke:none;stroke-width:1.33333"
         sodipodi:role="line"
         id="tspan114"
         x="125.97044"
         y="226.99918">deterministic</tspan></text>
    <text
       id="text115"
       xml:space="preserve"
       x="125.97044"
       y="286.99918"
       style="font-size:16px;fill:#ffffff;stroke-width:1.33333"><tspan
         style="font-variant:normal;font-weight:normal;font-size:21.3333px;font-family:'DejaVu Sans';writing-mode:lr-tb;fill:#ffffff;fill-opacity:1;fill-rule:nonzero;stroke:none;stroke-width:1.33333"
         sodipodi:role="line"
         id="tspan115"
         x="125.97044"
         y="286.99918">difference</tspan></text>
    <text
       id="text116"
       xml:space="preserve"
       x="125.97044"
       y="256.99918"
       style="font-size:16px;fill:#ffffff;stroke-width:1.33333"><tspan
         style="font-variant:normal;font-weight:normal;font-size:21.3333px;font-family:'DejaVu Sans';writing-mode:lr-tb;fill:#ffffff;fill-opacity:1;fill-rule:nonzero;stroke:none;stroke-width:1.33333"
         sodipodi:role="line"
         id="tspan116"
         x="125.97044"
         y="256.99918">stochastic</tspan></text>
  </g>
</svg>
