<?xml version="1.0" encoding="UTF-8" standalone="no"?>
<svg
   width="586.04852"
   height="386.42749"
   viewBox="0 0 2344.1941 1545.71"
   version="1.1"
   id="svg989"
   sodipodi:docname="bridge_evo_gamma0.svg"
   inkscape:version="1.2 (dc2aedaf03, 2022-05-15)"
   xmlns:inkscape="http://www.inkscape.org/namespaces/inkscape"
   xmlns:sodipodi="http://sodipodi.sourceforge.net/DTD/sodipodi-0.dtd"
   xmlns="http://www.w3.org/2000/svg"
   xmlns:svg="http://www.w3.org/2000/svg">
  <sodipodi:namedview
     id="namedview991"
     pagecolor="#ffffff"
     bordercolor="#666666"
     borderopacity="1.0"
     inkscape:showpageshadow="2"
     inkscape:pageopacity="0"
     inkscape:pagecheckerboard="false"
     inkscape:deskcolor="#d1d1d1"
     showgrid="false"
     inkscape:zoom="1.4259987"
     inkscape:cx="300.84179"
     inkscape:cy="227.91045"
     inkscape:window-width="2560"
     inkscape:window-height="1377"
     inkscape:window-x="1912"
     inkscape:window-y="-8"
     inkscape:window-maximized="1"
     inkscape:current-layer="svg989" />
  <defs
     id="defs5">
    <clipPath
       id="clip970">
      <rect
         x="0"
         y="0"
         width="2400"
         height="1600"
         id="rect2" />
    </clipPath>
  </defs>
  <defs
     id="defs12">
    <clipPath
       id="clip971">
      <rect
         x="480"
         y="0"
         width="1681"
         height="1600"
         id="rect9" />
    </clipPath>
  </defs>
  <defs
     id="defs19">
    <clipPath
       id="clip972">
      <rect
         x="336"
         y="47"
         width="2017"
         height="1334"
         id="rect16" />
    </clipPath>
  </defs>
  <polyline
     clip-path="url(#clip970)"
     style="fill:#ffffff;stroke:#ffffff;stroke-width:4;stroke-linecap:butt;stroke-linejoin:round;stroke-opacity:1"
     points="   336.827,1379.98 2352.76,1379.98    "
     id="polyline21"
     transform="translate(-8.5658,-47)" />
  <polyline
     clip-path="url(#clip970)"
     style="fill:#ffffff;stroke:#ffffff;stroke-width:4;stroke-linecap:butt;stroke-linejoin:round;stroke-opacity:1"
     points="   336.827,1379.98 336.827,1361.08    "
     id="polyline23"
     transform="translate(-8.5658,-47)" />
  <polyline
     clip-path="url(#clip970)"
     style="fill:#ffffff;stroke:#ffffff;stroke-width:4;stroke-linecap:butt;stroke-linejoin:round;stroke-opacity:1"
     points="   717.117,1379.98 717.117,1361.08    "
     id="polyline25"
     transform="translate(-8.5658,-47)" />
  <polyline
     clip-path="url(#clip970)"
     style="fill:#ffffff;stroke:#ffffff;stroke-width:4;stroke-linecap:butt;stroke-linejoin:round;stroke-opacity:1"
     points="   1097.41,1379.98 1097.41,1361.08    "
     id="polyline27"
     transform="translate(-8.5658,-47)" />
  <polyline
     clip-path="url(#clip970)"
     style="fill:#ffffff;stroke:#ffffff;stroke-width:4;stroke-linecap:butt;stroke-linejoin:round;stroke-opacity:1"
     points="   1477.7,1379.98 1477.7,1361.08    "
     id="polyline29"
     transform="translate(-8.5658,-47)" />
  <polyline
     clip-path="url(#clip970)"
     style="fill:#ffffff;stroke:#ffffff;stroke-width:4;stroke-linecap:butt;stroke-linejoin:round;stroke-opacity:1"
     points="   1857.99,1379.98 1857.99,1361.08    "
     id="polyline31"
     transform="translate(-8.5658,-47)" />
  <polyline
     clip-path="url(#clip970)"
     style="fill:#ffffff;stroke:#ffffff;stroke-width:4;stroke-linecap:butt;stroke-linejoin:round;stroke-opacity:1"
     points="   2238.28,1379.98 2238.28,1361.08    "
     id="polyline33"
     transform="translate(-8.5658,-47)" />
  <path
     clip-path="url(#clip970)"
     d="m 253.359,1467.89 h 13.368 v -46.14 l -14.543,2.92 v -7.45 l 14.462,-2.92 h 8.182 v 53.59 h 13.368 v 6.89 h -34.837 z"
     fill="#000000"
     fill-rule="evenodd"
     fill-opacity="1"
     id="path35"
     style="fill:#ffffff;stroke:#ffffff;stroke-opacity:1"
     transform="translate(-8.5658,-47)" />
  <path
     clip-path="url(#clip970)"
     d="m 322.224,1419.69 q -6.319,0 -9.52,6.24 -3.159,6.19 -3.159,18.67 0,12.44 3.159,18.68 3.201,6.19 9.52,6.19 6.36,0 9.52,-6.19 3.2,-6.24 3.2,-18.68 0,-12.48 -3.2,-18.67 -3.16,-6.24 -9.52,-6.24 m 0,-6.48 q 10.168,0 15.515,8.06 5.388,8.02 5.388,23.33 0,15.27 -5.388,23.33 -5.347,8.02 -15.515,8.02 -10.168,0 -15.556,-8.02 -5.347,-8.06 -5.347,-23.33 0,-15.31 5.347,-23.33 5.388,-8.06 15.556,-8.06 z"
     fill="#000000"
     fill-rule="evenodd"
     fill-opacity="1"
     id="path37"
     style="fill:#ffffff;stroke:#ffffff;stroke-opacity:1"
     transform="translate(-8.5658,-47)" />
  <path
     clip-path="url(#clip970)"
     d="m 354.186,1431.23 h 32.69 v 3.85 h -32.69 z"
     fill="#000000"
     fill-rule="evenodd"
     fill-opacity="1"
     id="path39"
     style="fill:#ffffff;stroke:#ffffff;stroke-opacity:1"
     transform="translate(-8.5658,-47)" />
  <path
     clip-path="url(#clip970)"
     d="m 413.653,1429.41 q 3.727,0.73 5.752,2.96 2.066,2.18 2.066,5.51 0,5.02 -3.848,7.73 -3.849,2.72 -11.019,2.72 -2.309,0 -4.861,-0.41 -2.511,-0.44 -5.347,-1.25 v -4.91 q 2.106,1.1 4.496,1.63 2.431,0.52 5.145,0.52 4.416,0 6.846,-1.58 2.431,-1.62 2.431,-4.45 0,-3 -2.269,-4.54 -2.228,-1.54 -6.603,-1.54 h -3.484 v -4.38 h 3.808 q 3.808,0 5.753,-1.25 1.985,-1.3 1.985,-3.73 0,-2.35 -2.026,-3.56 -2.025,-1.26 -5.874,-1.26 -1.62,0 -3.686,0.37 -2.066,0.36 -5.347,1.29 v -4.66 q 2.957,-0.68 5.549,-1.05 2.593,-0.36 4.821,-0.36 5.833,0 9.236,2.39 3.443,2.39 3.443,6.4 0,2.79 -1.823,4.74 -1.822,1.94 -5.144,2.67 z"
     fill="#000000"
     fill-rule="evenodd"
     fill-opacity="1"
     id="path41"
     style="fill:#ffffff;stroke:#ffffff;stroke-opacity:1"
     transform="translate(-8.5658,-47)" />
  <path
     clip-path="url(#clip970)"
     d="m 634.155,1467.89 h 13.368 v -46.14 l -14.543,2.92 v -7.45 l 14.462,-2.92 h 8.183 v 53.59 h 13.368 v 6.89 h -34.838 z"
     fill="#000000"
     fill-rule="evenodd"
     fill-opacity="1"
     id="path43"
     style="fill:#ffffff;stroke:#ffffff;stroke-opacity:1"
     transform="translate(-8.5658,-47)" />
  <path
     clip-path="url(#clip970)"
     d="m 703.02,1419.69 q -6.319,0 -9.519,6.24 -3.16,6.19 -3.16,18.67 0,12.44 3.16,18.68 3.2,6.19 9.519,6.19 6.36,0 9.52,-6.19 3.2,-6.24 3.2,-18.68 0,-12.48 -3.2,-18.67 -3.16,-6.24 -9.52,-6.24 m 0,-6.48 q 10.168,0 15.515,8.06 5.388,8.02 5.388,23.33 0,15.27 -5.388,23.33 -5.347,8.02 -15.515,8.02 -10.168,0 -15.555,-8.02 -5.347,-8.06 -5.347,-23.33 0,-15.31 5.347,-23.33 5.387,-8.06 15.555,-8.06 z"
     fill="#000000"
     fill-rule="evenodd"
     fill-opacity="1"
     id="path45"
     style="fill:#ffffff;stroke:#ffffff;stroke-opacity:1"
     transform="translate(-8.5658,-47)" />
  <path
     clip-path="url(#clip970)"
     d="m 734.982,1431.23 h 32.691 v 3.85 h -32.691 z"
     fill="#000000"
     fill-rule="evenodd"
     fill-opacity="1"
     id="path47"
     style="fill:#ffffff;stroke:#ffffff;stroke-opacity:1"
     transform="translate(-8.5658,-47)" />
  <path
     clip-path="url(#clip970)"
     d="m 784.079,1443.1 h 17.176 v 4.62 H 777.03 v -4.46 q 1.378,-1.25 3.93,-3.52 13.935,-12.36 13.935,-16.16 0,-2.68 -2.107,-4.3 -2.106,-1.66 -5.549,-1.66 -2.107,0 -4.578,0.73 -2.471,0.69 -5.388,2.11 v -4.99 q 3.12,-1.13 5.793,-1.7 2.714,-0.56 5.023,-0.56 5.874,0 9.398,2.67 3.525,2.67 3.525,7.05 0,5.63 -13.409,17.13 -2.268,1.95 -3.524,3.04 z"
     fill="#000000"
     fill-rule="evenodd"
     fill-opacity="1"
     id="path49"
     style="fill:#ffffff;stroke:#ffffff;stroke-opacity:1"
     transform="translate(-8.5658,-47)" />
  <path
     clip-path="url(#clip970)"
     d="m 1014.1,1467.89 h 13.37 v -46.14 l -14.54,2.92 v -7.45 l 14.46,-2.92 h 8.18 v 53.59 h 13.37 v 6.89 h -34.84 z"
     fill="#000000"
     fill-rule="evenodd"
     fill-opacity="1"
     id="path51"
     style="fill:#ffffff;stroke:#ffffff;stroke-opacity:1"
     transform="translate(-8.5658,-47)" />
  <path
     clip-path="url(#clip970)"
     d="m 1082.97,1419.69 q -6.32,0 -9.52,6.24 -3.16,6.19 -3.16,18.67 0,12.44 3.16,18.68 3.2,6.19 9.52,6.19 6.36,0 9.52,-6.19 3.2,-6.24 3.2,-18.68 0,-12.48 -3.2,-18.67 -3.16,-6.24 -9.52,-6.24 m 0,-6.48 q 10.16,0 15.51,8.06 5.39,8.02 5.39,23.33 0,15.27 -5.39,23.33 -5.35,8.02 -15.51,8.02 -10.17,0 -15.56,-8.02 -5.35,-8.06 -5.35,-23.33 0,-15.31 5.35,-23.33 5.39,-8.06 15.56,-8.06 z"
     fill="#000000"
     fill-rule="evenodd"
     fill-opacity="1"
     id="path53"
     style="fill:#ffffff;stroke:#ffffff;stroke-opacity:1"
     transform="translate(-8.5658,-47)" />
  <path
     clip-path="url(#clip970)"
     d="m 1114.93,1431.23 h 32.69 v 3.85 h -32.69 z"
     fill="#000000"
     fill-rule="evenodd"
     fill-opacity="1"
     id="path55"
     style="fill:#ffffff;stroke:#ffffff;stroke-opacity:1"
     transform="translate(-8.5658,-47)" />
  <path
     clip-path="url(#clip970)"
     d="m 1159.49,1443.26 h 8.26 v -24.75 l -9.03,1.66 v -4.7 l 9.31,-1.58 h 5.55 v 29.37 h 8.31 v 4.46 h -22.4 z"
     fill="#000000"
     fill-rule="evenodd"
     fill-opacity="1"
     id="path57"
     style="fill:#ffffff;stroke:#ffffff;stroke-opacity:1"
     transform="translate(-8.5658,-47)" />
  <path
     clip-path="url(#clip970)"
     d="m 1415.46,1467.89 h 13.36 v -46.14 l -14.54,2.92 v -7.45 l 14.46,-2.92 h 8.18 v 53.59 h 13.37 v 6.89 h -34.83 z"
     fill="#000000"
     fill-rule="evenodd"
     fill-opacity="1"
     id="path59"
     style="fill:#ffffff;stroke:#ffffff;stroke-opacity:1"
     transform="translate(-8.5658,-47)" />
  <path
     clip-path="url(#clip970)"
     d="m 1484.32,1419.69 q -6.32,0 -9.52,6.24 -3.16,6.19 -3.16,18.67 0,12.44 3.16,18.68 3.2,6.19 9.52,6.19 6.36,0 9.52,-6.19 3.2,-6.24 3.2,-18.68 0,-12.48 -3.2,-18.67 -3.16,-6.24 -9.52,-6.24 m 0,-6.48 q 10.17,0 15.52,8.06 5.38,8.02 5.38,23.33 0,15.27 -5.38,23.33 -5.35,8.02 -15.52,8.02 -10.17,0 -15.55,-8.02 -5.35,-8.06 -5.35,-23.33 0,-15.31 5.35,-23.33 5.38,-8.06 15.55,-8.06 z"
     fill="#000000"
     fill-rule="evenodd"
     fill-opacity="1"
     id="path61"
     style="fill:#ffffff;stroke:#ffffff;stroke-opacity:1"
     transform="translate(-8.5658,-47)" />
  <path
     clip-path="url(#clip970)"
     d="m 1533.82,1420.3 q -2.02,-3.49 -6.11,-3.49 -4.1,0 -6.12,3.49 -2.07,3.48 -2.07,10.45 0,7 2.07,10.49 2.02,3.48 6.12,3.48 4.09,0 6.11,-3.48 2.07,-3.49 2.07,-10.49 0,-6.97 -2.07,-10.45 m -6.11,-7.09 q 6.52,0 9.96,4.49 3.44,4.5 3.44,13.05 0,8.58 -3.44,13.08 -3.44,4.5 -9.96,4.5 -6.57,0 -10.01,-4.5 -3.44,-4.5 -3.44,-13.08 0,-8.55 3.44,-13.05 3.44,-4.49 10.01,-4.49 z"
     fill="#000000"
     fill-rule="evenodd"
     fill-opacity="1"
     id="path63"
     style="fill:#ffffff;stroke:#ffffff;stroke-opacity:1"
     transform="translate(-8.5658,-47)" />
  <path
     clip-path="url(#clip970)"
     d="m 1796.58,1467.89 h 13.36 v -46.14 l -14.54,2.92 v -7.45 l 14.46,-2.92 h 8.19 v 53.59 h 13.36 v 6.89 h -34.83 z"
     fill="#000000"
     fill-rule="evenodd"
     fill-opacity="1"
     id="path65"
     style="fill:#ffffff;stroke:#ffffff;stroke-opacity:1"
     transform="translate(-8.5658,-47)" />
  <path
     clip-path="url(#clip970)"
     d="m 1865.44,1419.69 q -6.32,0 -9.52,6.24 -3.16,6.19 -3.16,18.67 0,12.44 3.16,18.68 3.2,6.19 9.52,6.19 6.36,0 9.52,-6.19 3.2,-6.24 3.2,-18.68 0,-12.48 -3.2,-18.67 -3.16,-6.24 -9.52,-6.24 m 0,-6.48 q 10.17,0 15.52,8.06 5.38,8.02 5.38,23.33 0,15.27 -5.38,23.33 -5.35,8.02 -15.52,8.02 -10.17,0 -15.55,-8.02 -5.35,-8.06 -5.35,-23.33 0,-15.31 5.35,-23.33 5.38,-8.06 15.55,-8.06 z"
     fill="#000000"
     fill-rule="evenodd"
     fill-opacity="1"
     id="path67"
     style="fill:#ffffff;stroke:#ffffff;stroke-opacity:1"
     transform="translate(-8.5658,-47)" />
  <path
     clip-path="url(#clip970)"
     d="m 1898.17,1443.26 h 8.27 v -24.75 l -9.04,1.66 v -4.7 l 9.32,-1.58 h 5.55 v 29.37 h 8.3 v 4.46 h -22.4 z"
     fill="#000000"
     fill-rule="evenodd"
     fill-opacity="1"
     id="path69"
     style="fill:#ffffff;stroke:#ffffff;stroke-opacity:1"
     transform="translate(-8.5658,-47)" />
  <path
     clip-path="url(#clip970)"
     d="m 2177.21,1467.89 h 13.37 v -46.14 l -14.54,2.92 v -7.45 l 14.46,-2.92 h 8.18 v 53.59 h 13.37 v 6.89 h -34.84 z"
     fill="#000000"
     fill-rule="evenodd"
     fill-opacity="1"
     id="path71"
     style="fill:#ffffff;stroke:#ffffff;stroke-opacity:1"
     transform="translate(-8.5658,-47)" />
  <path
     clip-path="url(#clip970)"
     d="m 2246.08,1419.69 q -6.32,0 -9.52,6.24 -3.16,6.19 -3.16,18.67 0,12.44 3.16,18.68 3.2,6.19 9.52,6.19 6.36,0 9.51,-6.19 3.21,-6.24 3.21,-18.68 0,-12.48 -3.21,-18.67 -3.15,-6.24 -9.51,-6.24 m 0,-6.48 q 10.16,0 15.51,8.06 5.39,8.02 5.39,23.33 0,15.27 -5.39,23.33 -5.35,8.02 -15.51,8.02 -10.17,0 -15.56,-8.02 -5.35,-8.06 -5.35,-23.33 0,-15.31 5.35,-23.33 5.39,-8.06 15.56,-8.06 z"
     fill="#000000"
     fill-rule="evenodd"
     fill-opacity="1"
     id="path73"
     style="fill:#ffffff;stroke:#ffffff;stroke-opacity:1"
     transform="translate(-8.5658,-47)" />
  <path
     clip-path="url(#clip970)"
     d="m 2283.34,1443.1 h 17.18 v 4.62 h -24.23 v -4.46 q 1.38,-1.25 3.93,-3.52 13.94,-12.36 13.94,-16.16 0,-2.68 -2.11,-4.3 -2.1,-1.66 -5.55,-1.66 -2.1,0 -4.57,0.73 -2.48,0.69 -5.39,2.11 v -4.99 q 3.12,-1.13 5.79,-1.7 2.71,-0.56 5.02,-0.56 5.88,0 9.4,2.67 3.53,2.67 3.53,7.05 0,5.63 -13.41,17.13 -2.27,1.95 -3.53,3.04 z"
     fill="#000000"
     fill-rule="evenodd"
     fill-opacity="1"
     id="path75"
     style="fill:#ffffff;stroke:#ffffff;stroke-opacity:1"
     transform="translate(-8.5658,-47)" />
  <path
     clip-path="url(#clip970)"
     d="m 1302.89,1522.05 v 13.8 h 16.45 v 6.21 h -16.45 v 26.38 q 0,5.95 1.6,7.64 1.65,1.7 6.64,1.7 h 8.21 v 6.68 h -8.21 q -9.24,0 -12.76,-3.43 -3.51,-3.47 -3.51,-12.59 v -26.38 H 1289 v -6.21 h 5.86 v -13.8 z"
     fill="#000000"
     fill-rule="evenodd"
     fill-opacity="1"
     id="path77"
     style="fill:#ffffff"
     transform="translate(-8.5658,-47)" />
  <path
     clip-path="url(#clip970)"
     d="m 1344.03,1519.66 h 7.38 l -22.57,73.05 h -7.38 z"
     fill="#000000"
     fill-rule="evenodd"
     fill-opacity="1"
     id="path79"
     style="fill:#ffffff"
     transform="translate(-8.5658,-47)" />
  <path
     clip-path="url(#clip970)"
     d="m 1383.62,1575.61 q 1.56,2.08 6.25,2.08 h 3.86 v 6.77 h -4.82 q -7.81,0 -11.37,-4.17 -3.56,-4.25 -3.56,-13.45 v -23 h -18.23 v -7.99 h 44.84 v 7.99 h -18.45 v 23.48 q 0,6.29 1.48,8.29 z"
     fill="#000000"
     fill-rule="evenodd"
     fill-opacity="1"
     id="path81"
     style="fill:#ffffff"
     transform="translate(-8.5658,-47)" />
  <polyline
     clip-path="url(#clip970)"
     style="fill:#ffffff;stroke:#ffffff;stroke-width:4;stroke-linecap:butt;stroke-linejoin:round;stroke-opacity:1"
     points="   336.827,1379.98 336.827,47.2441    "
     id="polyline83"
     transform="translate(-8.5658,-47)" />
  <polyline
     clip-path="url(#clip970)"
     style="fill:#ffffff;stroke:#ffffff;stroke-width:4;stroke-linecap:butt;stroke-linejoin:round;stroke-opacity:1"
     points="   336.827,1173.94 355.725,1173.94    "
     id="polyline85"
     transform="translate(-8.5658,-47)" />
  <polyline
     clip-path="url(#clip970)"
     style="fill:#ffffff;stroke:#ffffff;stroke-width:4;stroke-linecap:butt;stroke-linejoin:round;stroke-opacity:1"
     points="   336.827,656.18 355.725,656.18    "
     id="polyline87"
     transform="translate(-8.5658,-47)" />
  <polyline
     clip-path="url(#clip970)"
     style="fill:#ffffff;stroke:#ffffff;stroke-width:4;stroke-linecap:butt;stroke-linejoin:round;stroke-opacity:1"
     points="   336.827,138.417 355.725,138.417    "
     id="polyline89"
     transform="translate(-8.5658,-47)" />
  <polyline
     clip-path="url(#clip970)"
     style="fill:#ffffff;stroke:#ffffff;stroke-width:4;stroke-linecap:butt;stroke-linejoin:round;stroke-opacity:1"
     points="   336.827,1348.55 346.276,1348.55    "
     id="polyline91"
     transform="translate(-8.5658,-47)" />
  <polyline
     clip-path="url(#clip970)"
     style="fill:#ffffff;stroke:#ffffff;stroke-width:4;stroke-linecap:butt;stroke-linejoin:round;stroke-opacity:1"
     points="   336.827,1308.37 346.276,1308.37    "
     id="polyline93"
     transform="translate(-8.5658,-47)" />
  <polyline
     clip-path="url(#clip970)"
     style="fill:#ffffff;stroke:#ffffff;stroke-width:4;stroke-linecap:butt;stroke-linejoin:round;stroke-opacity:1"
     points="   336.827,1274.29 346.276,1274.29    "
     id="polyline95"
     transform="translate(-8.5658,-47)" />
  <polyline
     clip-path="url(#clip970)"
     style="fill:#ffffff;stroke:#ffffff;stroke-width:4;stroke-linecap:butt;stroke-linejoin:round;stroke-opacity:1"
     points="   336.827,1244.71 346.276,1244.71    "
     id="polyline97"
     transform="translate(-8.5658,-47)" />
  <polyline
     clip-path="url(#clip970)"
     style="fill:#ffffff;stroke:#ffffff;stroke-width:4;stroke-linecap:butt;stroke-linejoin:round;stroke-opacity:1"
     points="   336.827,1218.57 346.276,1218.57    "
     id="polyline99"
     transform="translate(-8.5658,-47)" />
  <polyline
     clip-path="url(#clip970)"
     style="fill:#ffffff;stroke:#ffffff;stroke-width:4;stroke-linecap:butt;stroke-linejoin:round;stroke-opacity:1"
     points="   336.827,1195.15 346.276,1195.15    "
     id="polyline101"
     transform="translate(-8.5658,-47)" />
  <polyline
     clip-path="url(#clip970)"
     style="fill:#ffffff;stroke:#ffffff;stroke-width:4;stroke-linecap:butt;stroke-linejoin:round;stroke-opacity:1"
     points="   336.827,1029.61 346.276,1029.61    "
     id="polyline103"
     transform="translate(-8.5658,-47)" />
  <polyline
     clip-path="url(#clip970)"
     style="fill:#ffffff;stroke:#ffffff;stroke-width:4;stroke-linecap:butt;stroke-linejoin:round;stroke-opacity:1"
     points="   336.827,942.42 346.276,942.42    "
     id="polyline105"
     transform="translate(-8.5658,-47)" />
  <polyline
     clip-path="url(#clip970)"
     style="fill:#ffffff;stroke:#ffffff;stroke-width:4;stroke-linecap:butt;stroke-linejoin:round;stroke-opacity:1"
     points="   336.827,879.748 346.276,879.748    "
     id="polyline107"
     transform="translate(-8.5658,-47)" />
  <polyline
     clip-path="url(#clip970)"
     style="fill:#ffffff;stroke:#ffffff;stroke-width:4;stroke-linecap:butt;stroke-linejoin:round;stroke-opacity:1"
     points="   336.827,830.791 346.276,830.791    "
     id="polyline109"
     transform="translate(-8.5658,-47)" />
  <polyline
     clip-path="url(#clip970)"
     style="fill:#ffffff;stroke:#ffffff;stroke-width:4;stroke-linecap:butt;stroke-linejoin:round;stroke-opacity:1"
     points="   336.827,790.61 346.276,790.61    "
     id="polyline111"
     transform="translate(-8.5658,-47)" />
  <polyline
     clip-path="url(#clip970)"
     style="fill:#ffffff;stroke:#ffffff;stroke-width:4;stroke-linecap:butt;stroke-linejoin:round;stroke-opacity:1"
     points="   336.827,756.532 346.276,756.532    "
     id="polyline113"
     transform="translate(-8.5658,-47)" />
  <polyline
     clip-path="url(#clip970)"
     style="fill:#ffffff;stroke:#ffffff;stroke-width:4;stroke-linecap:butt;stroke-linejoin:round;stroke-opacity:1"
     points="   336.827,726.946 346.276,726.946    "
     id="polyline115"
     transform="translate(-8.5658,-47)" />
  <polyline
     clip-path="url(#clip970)"
     style="fill:#ffffff;stroke:#ffffff;stroke-width:4;stroke-linecap:butt;stroke-linejoin:round;stroke-opacity:1"
     points="   336.827,700.803 346.276,700.803    "
     id="polyline117"
     transform="translate(-8.5658,-47)" />
  <polyline
     clip-path="url(#clip970)"
     style="fill:#ffffff;stroke:#ffffff;stroke-width:4;stroke-linecap:butt;stroke-linejoin:round;stroke-opacity:1"
     points="   336.827,677.386 346.276,677.386    "
     id="polyline119"
     transform="translate(-8.5658,-47)" />
  <polyline
     clip-path="url(#clip970)"
     style="fill:#ffffff;stroke:#ffffff;stroke-width:4;stroke-linecap:butt;stroke-linejoin:round;stroke-opacity:1"
     points="   336.827,511.851 346.276,511.851    "
     id="polyline121"
     transform="translate(-8.5658,-47)" />
  <polyline
     clip-path="url(#clip970)"
     style="fill:#ffffff;stroke:#ffffff;stroke-width:4;stroke-linecap:butt;stroke-linejoin:round;stroke-opacity:1"
     points="   336.827,424.658 346.276,424.658    "
     id="polyline123"
     transform="translate(-8.5658,-47)" />
  <polyline
     clip-path="url(#clip970)"
     style="fill:#ffffff;stroke:#ffffff;stroke-width:4;stroke-linecap:butt;stroke-linejoin:round;stroke-opacity:1"
     points="   336.827,361.986 346.276,361.986    "
     id="polyline125"
     transform="translate(-8.5658,-47)" />
  <polyline
     clip-path="url(#clip970)"
     style="fill:#ffffff;stroke:#ffffff;stroke-width:4;stroke-linecap:butt;stroke-linejoin:round;stroke-opacity:1"
     points="   336.827,313.029 346.276,313.029    "
     id="polyline127"
     transform="translate(-8.5658,-47)" />
  <polyline
     clip-path="url(#clip970)"
     style="fill:#ffffff;stroke:#ffffff;stroke-width:4;stroke-linecap:butt;stroke-linejoin:round;stroke-opacity:1"
     points="   336.827,272.848 346.276,272.848    "
     id="polyline129"
     transform="translate(-8.5658,-47)" />
  <polyline
     clip-path="url(#clip970)"
     style="fill:#ffffff;stroke:#ffffff;stroke-width:4;stroke-linecap:butt;stroke-linejoin:round;stroke-opacity:1"
     points="   336.827,238.77 346.276,238.77    "
     id="polyline131"
     transform="translate(-8.5658,-47)" />
  <polyline
     clip-path="url(#clip970)"
     style="fill:#ffffff;stroke:#ffffff;stroke-width:4;stroke-linecap:butt;stroke-linejoin:round;stroke-opacity:1"
     points="   336.827,209.184 346.276,209.184    "
     id="polyline133"
     transform="matrix(1,0,0,-1,-8.5658,312.46192)" />
  <polyline
     clip-path="url(#clip970)"
     style="fill:#ffffff;stroke:#ffffff;stroke-width:4;stroke-linecap:butt;stroke-linejoin:round;stroke-opacity:1"
     points="   336.827,183.041 346.276,183.041    "
     id="polyline135"
     transform="translate(-8.5658,-47)" />
  <polyline
     clip-path="url(#clip970)"
     style="fill:#ffffff;stroke:#ffffff;stroke-width:4;stroke-linecap:butt;stroke-linejoin:round;stroke-opacity:1"
     points="   336.827,159.624 346.276,159.624    "
     id="polyline137"
     transform="translate(-8.5658,-47)" />
  <path
     clip-path="url(#clip970)"
     d="m 132.715,1197.3 h 13.368 v -46.14 l -14.543,2.91 v -7.45 l 14.462,-2.92 h 8.183 v 53.6 h 13.368 v 6.88 h -34.838 z"
     fill="#000000"
     fill-rule="evenodd"
     fill-opacity="1"
     id="path139"
     style="fill:#ffffff"
     transform="translate(-8.5658,-47)" />
  <path
     clip-path="url(#clip970)"
     d="m 201.58,1149.09 q -6.319,0 -9.519,6.24 -3.16,6.2 -3.16,18.67 0,12.44 3.16,18.68 3.2,6.19 9.519,6.19 6.36,0 9.52,-6.19 3.2,-6.24 3.2,-18.68 0,-12.47 -3.2,-18.67 -3.16,-6.24 -9.52,-6.24 m 0,-6.48 q 10.168,0 15.515,8.06 5.388,8.02 5.388,23.33 0,15.27 -5.388,23.34 -5.347,8.02 -15.515,8.02 -10.167,0 -15.555,-8.02 -5.347,-8.07 -5.347,-23.34 0,-15.31 5.347,-23.33 5.388,-8.06 15.555,-8.06 z"
     fill="#000000"
     fill-rule="evenodd"
     fill-opacity="1"
     id="path141"
     style="fill:#ffffff"
     transform="translate(-8.5658,-47)" />
  <path
     clip-path="url(#clip970)"
     d="m 233.542,1160.63 h 32.691 v 3.85 h -32.691 z"
     fill="#000000"
     fill-rule="evenodd"
     fill-opacity="1"
     id="path143"
     style="fill:#ffffff"
     transform="translate(-8.5658,-47)" />
  <path
     clip-path="url(#clip970)"
     d="m 293.009,1158.81 q 3.727,0.73 5.752,2.96 2.066,2.19 2.066,5.51 0,5.02 -3.848,7.74 -3.848,2.71 -11.018,2.71 -2.309,0 -4.861,-0.41 -2.512,-0.44 -5.348,-1.25 v -4.9 q 2.107,1.09 4.497,1.62 2.43,0.52 5.144,0.52 4.416,0 6.847,-1.58 2.43,-1.62 2.43,-4.45 0,-3 -2.268,-4.54 -2.228,-1.54 -6.603,-1.54 h -3.484 v -4.37 h 3.808 q 3.808,0 5.752,-1.26 1.985,-1.3 1.985,-3.73 0,-2.35 -2.026,-3.56 -2.025,-1.26 -5.873,-1.26 -1.621,0 -3.687,0.37 -2.066,0.36 -5.347,1.29 v -4.65 q 2.957,-0.69 5.55,-1.06 2.592,-0.36 4.82,-0.36 5.834,0 9.236,2.39 3.444,2.39 3.444,6.4 0,2.79 -1.823,4.74 -1.823,1.94 -5.145,2.67 z"
     fill="#000000"
     fill-rule="evenodd"
     fill-opacity="1"
     id="path145"
     style="fill:#ffffff"
     transform="translate(-8.5658,-47)" />
  <path
     clip-path="url(#clip970)"
     d="m 133.728,679.533 h 13.368 v -46.14 l -14.543,2.917 v -7.454 l 14.462,-2.916 h 8.182 v 53.593 h 13.368 v 6.887 h -34.837 z"
     fill="#000000"
     fill-rule="evenodd"
     fill-opacity="1"
     id="path147"
     style="fill:#ffffff"
     transform="translate(-8.5658,-47)" />
  <path
     clip-path="url(#clip970)"
     d="m 202.593,631.327 q -6.319,0 -9.52,6.239 -3.159,6.198 -3.159,18.674 0,12.437 3.159,18.675 3.201,6.198 9.52,6.198 6.36,0 9.52,-6.198 3.2,-6.238 3.2,-18.675 0,-12.476 -3.2,-18.674 -3.16,-6.239 -9.52,-6.239 m 0,-6.481 q 10.168,0 15.515,8.061 5.388,8.021 5.388,23.333 0,15.272 -5.388,23.334 -5.347,8.02 -15.515,8.02 -10.168,0 -15.555,-8.02 -5.348,-8.062 -5.348,-23.334 0,-15.312 5.348,-23.333 5.387,-8.061 15.555,-8.061 z"
     fill="#000000"
     fill-rule="evenodd"
     fill-opacity="1"
     id="path149"
     style="fill:#ffffff"
     transform="translate(-8.5658,-47)" />
  <path
     clip-path="url(#clip970)"
     d="m 234.555,642.872 h 32.69 v 3.849 h -32.69 z"
     fill="#000000"
     fill-rule="evenodd"
     fill-opacity="1"
     id="path151"
     style="fill:#ffffff"
     transform="translate(-8.5658,-47)" />
  <path
     clip-path="url(#clip970)"
     d="m 283.652,654.741 h 17.175 v 4.618 h -24.224 v -4.455 q 1.377,-1.256 3.929,-3.525 13.936,-12.355 13.936,-16.163 0,-2.673 -2.107,-4.294 -2.106,-1.661 -5.55,-1.661 -2.106,0 -4.577,0.729 -2.471,0.689 -5.388,2.107 v -4.983 q 3.119,-1.134 5.793,-1.701 2.714,-0.567 5.023,-0.567 5.874,0 9.398,2.673 3.524,2.674 3.524,7.049 0,5.631 -13.408,17.135 -2.269,1.945 -3.524,3.038 z"
     fill="#000000"
     fill-rule="evenodd"
     fill-opacity="1"
     id="path153"
     style="fill:#ffffff"
     transform="translate(-8.5658,-47)" />
  <path
     clip-path="url(#clip970)"
     d="m 133.039,161.771 h 13.368 v -46.14 l -14.543,2.917 v -7.454 l 14.462,-2.917 h 8.183 v 53.594 h 13.368 v 6.886 h -34.838 z"
     fill="#000000"
     fill-rule="evenodd"
     fill-opacity="1"
     id="path155"
     style="fill:#ffffff"
     transform="translate(-8.5658,-47)" />
  <path
     clip-path="url(#clip970)"
     d="m 201.904,113.565 q -6.319,0 -9.519,6.239 -3.16,6.197 -3.16,18.674 0,12.437 3.16,18.675 3.2,6.198 9.519,6.198 6.36,0 9.52,-6.198 3.2,-6.238 3.2,-18.675 0,-12.477 -3.2,-18.674 -3.16,-6.239 -9.52,-6.239 m 0,-6.481 q 10.168,0 15.515,8.061 5.388,8.021 5.388,23.333 0,15.272 -5.388,23.333 -5.347,8.021 -15.515,8.021 -10.167,0 -15.555,-8.021 -5.347,-8.061 -5.347,-23.333 0,-15.312 5.347,-23.333 5.388,-8.061 15.555,-8.061 z"
     fill="#000000"
     fill-rule="evenodd"
     fill-opacity="1"
     id="path157"
     style="fill:#ffffff"
     transform="translate(-8.5658,-47)" />
  <path
     clip-path="url(#clip970)"
     d="m 233.866,125.11 h 32.691 v 3.849 h -32.691 z"
     fill="#000000"
     fill-rule="evenodd"
     fill-opacity="1"
     id="path159"
     style="fill:#ffffff"
     transform="translate(-8.5658,-47)" />
  <path
     clip-path="url(#clip970)"
     d="m 278.426,137.141 h 8.264 V 112.39 l -9.034,1.661 v -4.699 l 9.317,-1.58 h 5.55 v 29.369 h 8.304 v 4.456 h -22.401 z"
     fill="#000000"
     fill-rule="evenodd"
     fill-opacity="1"
     id="path161"
     style="fill:#ffffff"
     transform="translate(-8.5658,-47)" />
  <path
     clip-path="url(#clip970)"
     d="m 46.76,776.98 h 29.3402 v 7.986 H 47.0205 q -6.9011,0 -10.3299,2.691 -3.4288,2.691 -3.4288,8.073 0,6.467 4.1233,10.199 4.1232,3.733 11.2412,3.733 h 27.4739 v 8.029 H 8.5658 v -8.029 h 26.4755 q -4.3836,-2.865 -6.5537,-6.728 -2.1702,-3.906 -2.1702,-8.984 0,-8.377 5.2083,-12.673 5.1649,-4.297 15.2343,-4.297 z"
     fill="#000000"
     fill-rule="evenodd"
     fill-opacity="1"
     id="path163"
     style="fill:#ffffff"
     transform="translate(-8.5658,-47)" />
  <path
     clip-path="url(#clip970)"
     d="m 46.7166,744.688 q -3.7326,2.17 -3.7326,6.554 0,4.384 3.7326,6.554 3.7327,2.213 11.1979,2.213 7.5086,0 11.2413,-2.213 3.7326,-2.17 3.7326,-6.554 0,-4.384 -3.7326,-6.554 -3.7327,-2.213 -11.2413,-2.213 -7.4652,0 -11.1979,2.213 m -7.5954,6.554 q 0,-6.988 4.8177,-10.677 4.8177,-3.689 13.9756,-3.689 9.2013,0 14.019,3.689 4.8177,3.689 4.8177,10.677 0,7.031 -4.8177,10.72 -4.8177,3.69 -14.019,3.69 -9.1579,0 -13.9756,-3.69 -4.8177,-3.689 -4.8177,-10.72 z"
     fill="#000000"
     fill-rule="evenodd"
     fill-opacity="1"
     id="path165"
     style="fill:#ffffff"
     transform="translate(-8.5658,-47)" />
  <path
     clip-path="url(#clip970)"
     d="m 11.3002,711.225 v -7.379 l 73.0464,22.57 v 7.378 z"
     fill="#000000"
     fill-rule="evenodd"
     fill-opacity="1"
     id="path167"
     style="fill:#ffffff"
     transform="translate(-8.5658,-47)" />
  <path
     clip-path="url(#clip970)"
     d="m 45.7184,664.393 q 0.9548,-2.821 4.0798,-5.468 3.125,-2.691 8.5937,-5.382 l 17.7083,-8.898 v 9.419 l -16.6232,8.29 q -6.5104,3.211 -8.6371,6.25 -2.1267,2.994 -2.1267,8.203 v 9.548 h 27.387 v 8.767 h -64.8 v -19.791 q 0,-11.111 4.644,-16.58 4.6441,-5.469 14.0191,-5.469 6.1197,0 10.1561,2.865 4.0365,2.821 5.599,8.246 M 18.505,686.355 h 23.0033 v -11.024 q 0,-6.337 -2.9079,-9.549 -2.9514,-3.255 -8.6371,-3.255 -5.6858,0 -8.5503,3.255 -2.908,3.212 -2.908,9.549 z"
     fill="#000000"
     fill-rule="evenodd"
     fill-opacity="1"
     id="path169"
     style="fill:#ffffff"
     transform="translate(-8.5658,-47)" />
  <path
     clip-path="url(#clip970)"
     d="m 46.7166,617.345 q -3.7326,2.17 -3.7326,6.554 0,4.384 3.7326,6.554 3.7327,2.213 11.1979,2.213 7.5086,0 11.2413,-2.213 3.7326,-2.17 3.7326,-6.554 0,-4.384 -3.7326,-6.554 -3.7327,-2.213 -11.2413,-2.213 -7.4652,0 -11.1979,2.213 m -7.5954,6.554 q 0,-6.988 4.8177,-10.677 4.8177,-3.689 13.9756,-3.689 9.2013,0 14.019,3.689 4.8177,3.689 4.8177,10.677 0,7.031 -4.8177,10.72 -4.8177,3.69 -14.019,3.69 -9.1579,0 -13.9756,-3.69 -4.8177,-3.689 -4.8177,-10.72 z"
     fill="#000000"
     fill-rule="evenodd"
     fill-opacity="1"
     id="path171"
     style="fill:#ffffff"
     transform="translate(-8.5658,-47)" />
  <circle
     clip-path="url(#clip972)"
     cx="394.06299"
     cy="1136.63"
     r="28"
     fill="#009af9"
     fill-rule="evenodd"
     fill-opacity="0.6"
     stroke="#808080"
     stroke-opacity="0.6"
     stroke-width="0"
     id="circle173"
     style="fill:#009af9;fill-opacity:1"
     transform="translate(-8.5658,-47)" />
  <circle
     clip-path="url(#clip972)"
     cx="508.54199"
     cy="1134.16"
     r="28"
     fill="#009af9"
     fill-rule="evenodd"
     fill-opacity="0.6"
     stroke="#808080"
     stroke-opacity="0.6"
     stroke-width="0"
     id="circle175"
     style="fill:#009af9;fill-opacity:1"
     transform="translate(-8.5658,-47)" />
  <circle
     clip-path="url(#clip972)"
     cx="575.508"
     cy="1131.6899"
     r="28"
     fill="#009af9"
     fill-rule="evenodd"
     fill-opacity="0.6"
     stroke="#808080"
     stroke-opacity="0.6"
     stroke-width="0"
     id="circle177"
     style="fill:#009af9;fill-opacity:1"
     transform="translate(-8.5658,-47)" />
  <circle
     clip-path="url(#clip972)"
     cx="623.021"
     cy="1129.22"
     r="28"
     fill="#009af9"
     fill-rule="evenodd"
     fill-opacity="0.6"
     stroke="#808080"
     stroke-opacity="0.6"
     stroke-width="0"
     id="circle179"
     style="fill:#009af9;fill-opacity:1"
     transform="translate(-8.5658,-47)" />
  <circle
     clip-path="url(#clip972)"
     cx="689.98602"
     cy="1124.29"
     r="28"
     fill="#009af9"
     fill-rule="evenodd"
     fill-opacity="0.6"
     stroke="#808080"
     stroke-opacity="0.6"
     stroke-width="0"
     id="circle181"
     style="fill:#009af9;fill-opacity:1"
     transform="translate(-8.5658,-47)" />
  <circle
     clip-path="url(#clip972)"
     cx="756.95203"
     cy="1116.92"
     r="28"
     fill="#009af9"
     fill-rule="evenodd"
     fill-opacity="0.6"
     stroke="#808080"
     stroke-opacity="0.6"
     stroke-width="0"
     id="circle183"
     style="fill:#009af9;fill-opacity:1"
     transform="translate(-8.5658,-47)" />
  <circle
     clip-path="url(#clip972)"
     cx="888.83197"
     cy="1090.39"
     r="28"
     fill="#009af9"
     fill-rule="evenodd"
     fill-opacity="0.6"
     stroke="#808080"
     stroke-opacity="0.6"
     stroke-width="0"
     id="circle185"
     style="fill:#009af9;fill-opacity:1"
     transform="translate(-8.5658,-47)" />
  <circle
     clip-path="url(#clip972)"
     cx="955.79797"
     cy="1067.29"
     r="28"
     fill="#009af9"
     fill-rule="evenodd"
     fill-opacity="0.6"
     stroke="#808080"
     stroke-opacity="0.6"
     stroke-width="0"
     id="circle187"
     style="fill:#009af9;fill-opacity:1"
     transform="translate(-8.5658,-47)" />
  <circle
     clip-path="url(#clip972)"
     cx="1003.31"
     cy="1045.4"
     r="28"
     fill="#009af9"
     fill-rule="evenodd"
     fill-opacity="0.6"
     stroke="#808080"
     stroke-opacity="0.6"
     stroke-width="0"
     id="circle189"
     style="fill:#009af9;fill-opacity:1"
     transform="translate(-8.5658,-47)" />
  <circle
     clip-path="url(#clip972)"
     cx="1070.28"
     cy="1005.44"
     r="28"
     fill="#009af9"
     fill-rule="evenodd"
     fill-opacity="0.6"
     stroke="#808080"
     stroke-opacity="0.6"
     stroke-width="0"
     id="circle191"
     style="fill:#009af9;fill-opacity:1"
     transform="translate(-8.5658,-47)" />
  <circle
     clip-path="url(#clip972)"
     cx="1117.79"
     cy="970.35303"
     r="28"
     fill="#009af9"
     fill-rule="evenodd"
     fill-opacity="0.6"
     stroke="#808080"
     stroke-opacity="0.6"
     stroke-width="0"
     id="circle193"
     style="fill:#009af9;fill-opacity:1"
     transform="translate(-8.5658,-47)" />
  <circle
     clip-path="url(#clip972)"
     cx="1170.38"
     cy="925.52698"
     r="28"
     fill="#009af9"
     fill-rule="evenodd"
     fill-opacity="0.6"
     stroke="#808080"
     stroke-opacity="0.6"
     stroke-width="0"
     id="circle195"
     style="fill:#009af9;fill-opacity:1"
     transform="translate(-8.5658,-47)" />
  <circle
     clip-path="url(#clip972)"
     cx="1232.27"
     cy="866.78003"
     r="28"
     fill="#009af9"
     fill-rule="evenodd"
     fill-opacity="0.6"
     stroke="#808080"
     stroke-opacity="0.6"
     stroke-width="0"
     id="circle197"
     style="fill:#009af9;fill-opacity:1"
     transform="translate(-8.5658,-47)" />
  <circle
     clip-path="url(#clip972)"
     cx="1292.2"
     cy="807.00897"
     r="28"
     fill="#009af9"
     fill-rule="evenodd"
     fill-opacity="0.6"
     stroke="#808080"
     stroke-opacity="0.6"
     stroke-width="0"
     id="circle199"
     style="fill:#009af9;fill-opacity:1"
     transform="translate(-8.5658,-47)" />
  <circle
     clip-path="url(#clip972)"
     cx="1341.5"
     cy="757.97101"
     r="28"
     fill="#009af9"
     fill-rule="evenodd"
     fill-opacity="0.6"
     stroke="#808080"
     stroke-opacity="0.6"
     stroke-width="0"
     id="circle201"
     style="fill:#009af9;fill-opacity:1"
     transform="translate(-8.5658,-47)" />
  <circle
     clip-path="url(#clip972)"
     cx="1387.6801"
     cy="712.90802"
     r="28"
     fill="#009af9"
     fill-rule="evenodd"
     fill-opacity="0.6"
     stroke="#808080"
     stroke-opacity="0.6"
     stroke-width="0"
     id="circle203"
     style="fill:#009af9;fill-opacity:1"
     transform="translate(-8.5658,-47)" />
  <circle
     clip-path="url(#clip972)"
     cx="1439.17"
     cy="663.659"
     r="28"
     fill="#009af9"
     fill-rule="evenodd"
     fill-opacity="0.6"
     stroke="#808080"
     stroke-opacity="0.6"
     stroke-width="0"
     id="circle205"
     style="fill:#009af9;fill-opacity:1"
     transform="translate(-8.5658,-47)" />
  <circle
     clip-path="url(#clip972)"
     cx="1496"
     cy="610.53101"
     r="28"
     fill="#009af9"
     fill-rule="evenodd"
     fill-opacity="0.6"
     stroke="#808080"
     stroke-opacity="0.6"
     stroke-width="0"
     id="circle207"
     style="fill:#009af9;fill-opacity:1"
     transform="translate(-8.5658,-47)" />
  <circle
     clip-path="url(#clip972)"
     cx="1552.17"
     cy="559.51801"
     r="28"
     fill="#009af9"
     fill-rule="evenodd"
     fill-opacity="0.6"
     stroke="#808080"
     stroke-opacity="0.6"
     stroke-width="0"
     id="circle209"
     style="fill:#009af9;fill-opacity:1"
     transform="translate(-8.5658,-47)" />
  <circle
     clip-path="url(#clip972)"
     cx="1613.59"
     cy="505.73001"
     r="28"
     fill="#009af9"
     fill-rule="evenodd"
     fill-opacity="0.6"
     stroke="#808080"
     stroke-opacity="0.6"
     stroke-width="0"
     id="circle211"
     style="fill:#009af9;fill-opacity:1"
     transform="translate(-8.5658,-47)" />
  <circle
     clip-path="url(#clip972)"
     cx="1686.9301"
     cy="444.44901"
     r="28"
     fill="#009af9"
     fill-rule="evenodd"
     fill-opacity="0.6"
     stroke="#808080"
     stroke-opacity="0.6"
     stroke-width="0"
     id="circle213"
     style="fill:#009af9;fill-opacity:1"
     transform="translate(-8.5658,-47)" />
  <circle
     clip-path="url(#clip972)"
     cx="1746.95"
     cy="396.68701"
     r="28"
     fill="#009af9"
     fill-rule="evenodd"
     fill-opacity="0.6"
     stroke="#808080"
     stroke-opacity="0.6"
     stroke-width="0"
     id="circle215"
     style="fill:#009af9;fill-opacity:1"
     transform="translate(-8.5658,-47)" />
  <circle
     clip-path="url(#clip972)"
     cx="1801.0699"
     cy="355.37601"
     r="28"
     fill="#009af9"
     fill-rule="evenodd"
     fill-opacity="0.6"
     stroke="#808080"
     stroke-opacity="0.6"
     stroke-width="0"
     id="circle217"
     style="fill:#009af9;fill-opacity:1"
     transform="translate(-8.5658,-47)" />
  <circle
     clip-path="url(#clip972)"
     cx="1856.55"
     cy="314.66501"
     r="28"
     fill="#009af9"
     fill-rule="evenodd"
     fill-opacity="0.6"
     stroke="#808080"
     stroke-opacity="0.6"
     stroke-width="0"
     id="circle219"
     style="fill:#009af9;fill-opacity:1"
     transform="translate(-8.5658,-47)" />
  <circle
     clip-path="url(#clip972)"
     cx="1915.39"
     cy="273.186"
     r="28"
     fill="#009af9"
     fill-rule="evenodd"
     fill-opacity="0.6"
     stroke="#808080"
     stroke-opacity="0.6"
     stroke-width="0"
     id="circle221"
     style="fill:#009af9;fill-opacity:1"
     transform="translate(-8.5658,-47)" />
  <circle
     clip-path="url(#clip972)"
     cx="1982.3"
     cy="228.05901"
     r="28"
     fill="#009af9"
     fill-rule="evenodd"
     fill-opacity="0.6"
     stroke="#808080"
     stroke-opacity="0.6"
     stroke-width="0"
     id="circle223"
     style="fill:#009af9;fill-opacity:1"
     transform="translate(-8.5658,-47)" />
  <circle
     clip-path="url(#clip972)"
     cx="2045.52"
     cy="187.459"
     r="28"
     fill="#009af9"
     fill-rule="evenodd"
     fill-opacity="0.6"
     stroke="#808080"
     stroke-opacity="0.6"
     stroke-width="0"
     id="circle225"
     style="fill:#009af9;fill-opacity:1"
     transform="translate(-8.5658,-47)" />
  <circle
     clip-path="url(#clip972)"
     cx="2107.3799"
     cy="149.894"
     r="28"
     fill="#009af9"
     fill-rule="evenodd"
     fill-opacity="0.6"
     stroke="#808080"
     stroke-opacity="0.6"
     stroke-width="0"
     id="circle227"
     style="fill:#009af9;fill-opacity:1"
     transform="translate(-8.5658,-47)" />
  <circle
     clip-path="url(#clip972)"
     cx="2167.3"
     cy="115.996"
     r="28"
     fill="#009af9"
     fill-rule="evenodd"
     fill-opacity="0.6"
     stroke="#808080"
     stroke-opacity="0.6"
     stroke-width="0"
     id="circle229"
     style="fill:#009af9;fill-opacity:1"
     transform="translate(-8.5658,-47)" />
  <circle
     clip-path="url(#clip972)"
     cx="2231.8401"
     cy="83.010498"
     r="28"
     fill="#009af9"
     fill-rule="evenodd"
     fill-opacity="0.6"
     stroke="#808080"
     stroke-opacity="0.6"
     stroke-width="0"
     id="circle231"
     style="fill:#009af9;fill-opacity:1"
     transform="translate(-8.5658,-47)" />
  <circle
     clip-path="url(#clip972)"
     cx="2293.8701"
     cy="59.578201"
     r="28"
     fill="#009af9"
     fill-rule="evenodd"
     fill-opacity="0.6"
     stroke="#808080"
     stroke-opacity="0.6"
     stroke-width="0"
     id="circle233"
     style="fill:#009af9;fill-opacity:1"
     transform="translate(-8.5658,-47)" />
  <polyline
     clip-path="url(#clip972)"
     style="fill:none;stroke:#ffffff;stroke-width:12;stroke-linecap:butt;stroke-linejoin:round;stroke-opacity:1"
     stroke-dasharray="48, 30"
     points="   -423.752,2371.08 1477.7,645.207 1592.18,541.3 1659.14,480.518 1706.66,437.392 1743.51,403.941 1773.62,376.61 1799.08,353.502 1821.13,333.485 1840.59,315.828    1857.99,300.034 1873.73,285.746 1888.1,272.702 1901.32,260.703 1913.56,249.594 1924.95,239.251 1935.61,229.577 1945.62,220.489 1955.06,211.92 1963.99,203.815    1972.47,196.126 1980.52,188.812 1988.21,181.838 1995.55,175.174 2002.58,168.794 2009.32,162.675 2015.8,156.795 2022.03,151.138 2028.04,145.686 2033.83,140.426    2039.43,135.344 2044.85,130.428 2050.09,125.669 2055.17,121.056 2060.1,116.581 2064.89,112.235 2069.54,108.012 2074.07,103.905 2078.47,99.9071 2082.76,96.0132    2086.94,92.2179 2091.02,88.5163 2095,84.9039 2098.89,81.3765 2102.69,77.9302 2106.4,74.5613 2110.03,71.2665 2113.58,68.0426 2117.06,64.8865 2120.46,61.7955    2123.8,58.767 2127.07,55.7984 2130.28,52.8875 2133.42,50.0321 2136.51,47.23 2139.54,44.4793 2142.52,41.7782 2145.44,39.1249 2148.31,36.5177 2151.13,33.9552    2153.91,31.4357 2156.64,28.9578 2159.33,26.5202 2161.97,24.1216 2164.57,21.7608 2167.13,19.4367 2169.65,17.1479 2172.14,14.8937 2174.58,12.6728 2176.99,10.4843    2179.37,8.32732 2181.71,6.20093 2184.02,4.10429 2186.3,2.03657 2188.55,-0.003019 2190.76,-2.01523 2192.95,-4.00079 2195.11,-5.96039 2197.24,-7.89471 2199.35,-9.80438    2201.42,-11.69 2203.48,-13.5523 2205.5,-15.3916 2207.5,-17.2087 2209.48,-19.004 2211.44,-20.7781 2213.37,-22.5314 2215.28,-24.2645 2217.16,-25.9777 2219.03,-27.6716    2220.88,-29.3466 2222.7,-31.003 2224.51,-32.6414 2226.29,-34.262 2228.06,-35.8653 2229.81,-37.4517 2231.54,-39.0214 2233.25,-40.5749 2234.94,-42.1124 2236.62,-43.6343       "
     id="polyline793"
     transform="translate(-8.5658,-44.194948)" />
  <circle
     clip-path="url(#clip970)"
     cx="493.62201"
     cy="169.429"
     r="34"
     fill="#009af9"
     fill-rule="evenodd"
     fill-opacity="0.6"
     stroke="#808080"
     stroke-opacity="0.6"
     stroke-width="0"
     id="circle799"
     style="fill:#009af9;fill-opacity:1"
     transform="translate(-8.5658,-47)" />
  <path
     clip-path="url(#clip970)"
     d="m 594.642,162.571 8.507,24.028 12.153,-30.139 h 6.771 l -15.729,38.889 v 14.791 h -6.389 v -14.791 l -10.209,-29.028 q -1.527,-4.375 -4.826,-4.375 h -1.701 v -5.486 h 2.43 q 6.84,0 8.993,6.111 z"
     fill="#000000"
     fill-rule="evenodd"
     fill-opacity="1"
     id="path801"
     style="fill:#ffffff"
     transform="translate(-8.5658,-47)" />
  <path
     clip-path="url(#clip970)"
     d="m 631.725,163.057 h 44.514 v 5.833 h -44.514 v -5.833 m 0,14.167 h 44.514 v 5.902 h -44.514 z"
     fill="#000000"
     fill-rule="evenodd"
     fill-opacity="1"
     id="path803"
     style="fill:#ffffff"
     transform="translate(-8.5658,-47)" />
  <path
     clip-path="url(#clip970)"
     d="m 696.308,162.571 8.507,24.028 12.153,-30.139 h 6.771 l -15.729,38.889 v 14.791 h -6.389 v -14.791 l -10.208,-29.028 q -1.528,-4.375 -4.827,-4.375 h -1.701 v -5.486 h 2.43 q 6.841,0 8.993,6.111 z"
     fill="#000000"
     fill-rule="evenodd"
     fill-opacity="1"
     id="path805"
     style="fill:#ffffff"
     transform="translate(-8.5658,-47)" />
  <path
     clip-path="url(#clip970)"
     d="m 745.648,171.842 q -1.736,-2.986 -5.243,-2.986 -3.507,0 -5.243,2.986 -1.77,2.986 -1.77,8.958 0,6.007 1.77,8.993 1.736,2.986 5.243,2.986 3.507,0 5.243,-2.986 1.771,-2.986 1.771,-8.993 0,-5.972 -1.771,-8.958 m -5.243,-6.077 q 5.591,0 8.542,3.855 2.951,3.854 2.951,11.18 0,7.361 -2.951,11.215 -2.951,3.854 -8.542,3.854 -5.625,0 -8.576,-3.854 -2.951,-3.854 -2.951,-11.215 0,-7.326 2.951,-11.18 2.951,-3.855 8.576,-3.855 z"
     fill="#000000"
     fill-rule="evenodd"
     fill-opacity="1"
     id="path807"
     style="fill:#ffffff"
     transform="translate(-8.5658,-47)" />
  <polyline
     clip-path="url(#clip970)"
     style="fill:#ffffff;stroke:#ffffff;stroke-width:6;stroke-linecap:butt;stroke-linejoin:round;stroke-opacity:1"
     stroke-dasharray="24, 15"
     points="   426.424,947.029 560.819,947.029    "
     id="polyline981"
     transform="translate(47.4342,-727)" />
  <path
     clip-path="url(#clip970)"
     d="m 593.878,960.345 q 5.73,0 9.167,-8.334 -4.41,-9.097 -9.167,-9.097 -3.472,0 -5.243,2.5 -1.875,2.674 -1.875,6.215 0,3.889 1.875,6.285 1.945,2.431 5.243,2.431 m 24.861,0.069 v 4.583 h -2.673 q -2.535,0 -4.41,-1.041 -1.875,-0.938 -3.68,-3.125 -1.077,-1.25 -2.778,-4.167 -2.327,4.167 -4.375,6.007 -2.535,2.222 -6.563,2.222 -4.687,0 -7.777,-3.507 -3.264,-3.68 -3.264,-9.757 0,-5.833 3.264,-9.791 2.882,-3.507 7.847,-3.507 2.534,0 4.409,1.041 2.188,1.146 3.681,3.125 1.389,1.771 2.778,4.167 2.326,-4.167 4.375,-6.007 2.534,-2.222 6.562,-2.222 h 2.604 v 4.549 h -2.222 q -5.139,0 -9.166,8.333 4.409,9.097 9.166,9.097 z"
     fill="#000000"
     fill-rule="evenodd"
     fill-opacity="1"
     id="path983"
     transform="translate(47.4342,-727)"
     style="fill:#ffffff;stroke:#ffffff;stroke-opacity:1" />
  <path
     clip-path="url(#clip970)"
     d="m 662.003,923.018 v 11.042 h 13.16 v 4.965 h -13.16 v 21.111 q 0,4.757 1.285,6.111 1.319,1.354 5.312,1.354 h 6.563 v 5.348 H 668.6 q -7.396,0 -10.208,-2.743 -2.813,-2.778 -2.813,-10.07 v -21.111 h -4.687 v -4.965 h 4.687 v -11.042 z"
     fill="#000000"
     fill-rule="evenodd"
     fill-opacity="1"
     id="path985"
     transform="translate(47.4342,-727)"
     style="fill:#ffffff;stroke:#ffffff;stroke-opacity:1" />
  <text
     xml:space="preserve"
     style="font-style:normal;font-weight:normal;font-size:32.7406px;line-height:1.25;font-family:sans-serif;fill:#ffffff;fill-opacity:1;stroke:none;stroke-width:0.818512"
     x="733.00873"
     y="213.2052"
     id="text1205"><tspan
       sodipodi:role="line"
       id="tspan1203"
       style="fill:#ffffff;stroke-width:0.818512"
       x="733.00873"
       y="213.2052">2/3</tspan></text>
</svg>
