<?xml version="1.0" encoding="UTF-8" standalone="no"?>
<!-- Created with Inkscape (http://www.inkscape.org/) -->

<svg
   width="106.18209mm"
   height="81.806114mm"
   viewBox="0 0 106.18209 81.806114"
   version="1.1"
   id="svg5"
   inkscape:version="1.2 (dc2aedaf03, 2022-05-15)"
   sodipodi:docname="Impro_droplet_sizes_2.svg"
   xmlns:inkscape="http://www.inkscape.org/namespaces/inkscape"
   xmlns:sodipodi="http://sodipodi.sourceforge.net/DTD/sodipodi-0.dtd"
   xmlns="http://www.w3.org/2000/svg"
   xmlns:svg="http://www.w3.org/2000/svg">
  <sodipodi:namedview
     id="namedview7"
     pagecolor="#ffffff"
     bordercolor="#666666"
     borderopacity="1.0"
     inkscape:showpageshadow="2"
     inkscape:pageopacity="1"
     inkscape:pagecheckerboard="0"
     inkscape:deskcolor="#d1d1d1"
     inkscape:document-units="mm"
     showgrid="false"
     inkscape:zoom="0.914906"
     inkscape:cx="53.01091"
     inkscape:cy="123.50996"
     inkscape:window-width="2560"
     inkscape:window-height="1377"
     inkscape:window-x="-8"
     inkscape:window-y="-8"
     inkscape:window-maximized="1"
     inkscape:current-layer="layer1" />
  <defs
     id="defs2" />
  <g
     inkscape:label="Layer 1"
     inkscape:groupmode="layer"
     id="layer1"
     transform="translate(-35.698399,-115.78942)">
    <rect
       style="fill:#000000;fill-opacity:0;stroke:#000000;stroke-width:0.352999;stroke-opacity:1"
       id="rect184"
       width="98.61441"
       height="73.743912"
       x="43.089581"
       y="115.96592" />
    <path
       style="fill:#f8b96e;fill-opacity:0.411546;stroke:#000000;stroke-width:0.264583px;stroke-linecap:butt;stroke-linejoin:miter;stroke-opacity:1"
       d="m 41.932814,186.52872 c 0.424421,-0.46759 0.970196,0.0772 1.445959,0 0.300898,-0.0488 0.566676,-0.24036 0.867574,-0.28919 0.190305,-0.0309 0.400265,0.0738 0.578384,0 0.125949,-0.0522 0.178599,-0.20948 0.289193,-0.28919 0.174864,-0.12603 0.391952,-0.181 0.578384,-0.28919 0.601226,-0.3489 1.197577,-0.71606 1.735151,-1.15677 0.737988,-0.60501 1.349562,-1.34956 2.024343,-2.02434 0.963973,-0.96397 1.927944,-1.92795 2.891917,-2.89192 0.578383,-0.57838 1.125667,-1.18964 1.73515,-1.73515 0.459926,-0.41165 1.016372,-0.71355 1.445959,-1.15677 0.335451,-0.3461 0.568602,-0.77871 0.867577,-1.15677 0.467012,-0.59054 1.033866,-1.10506 1.445958,-1.73515 0.353945,-0.54119 0.489472,-1.21056 0.867577,-1.73515 0.239134,-0.33178 0.652561,-0.51967 0.867574,-0.86757 0.320523,-0.51862 0.379448,-1.15885 0.578384,-1.73515 0.467605,-1.35461 0.978354,-2.69408 1.445959,-4.04869 0.198936,-0.5763 0.480726,-1.13335 0.578384,-1.73515 0.09265,-0.57091 -0.09265,-1.16424 0,-1.73515 0.09766,-0.6018 0.438312,-1.14179 0.578385,-1.73515 0.313214,-1.3268 0.226329,-2.73167 0.578381,-4.04869 0.134057,-0.50151 0.480216,-0.93621 0.578385,-1.44596 0.182295,-0.94658 -0.154412,-1.94039 0,-2.89192 0.04883,-0.3009 0.240363,-0.56667 0.289192,-0.86757 0.04632,-0.28546 0,-0.57839 0,-0.86758 0,-0.0964 -0.06816,-0.22103 0,-0.28919 0.06816,-0.0682 0.221029,0.0682 0.289192,0 0.06816,-0.0682 -0.02793,-0.19693 0,-0.28919 0.100719,-0.33265 0.425679,-0.55536 0.578382,-0.86758 0.133929,-0.27384 0.08946,-0.63728 0.289192,-0.86757 0.14123,-0.16284 0.403522,-0.16315 0.578385,-0.28919 0.110595,-0.0797 0.192794,-0.1928 0.289192,-0.2892 0.192793,-0.19279 0.357195,-0.41896 0.578382,-0.57838 0.174864,-0.12603 0.425966,-0.13677 0.578384,-0.28919 0.152417,-0.15242 0.187484,-0.38834 0.289193,-0.57838 0.36672,-0.68522 0.957289,-1.2732 1.156766,-2.02435 0.02474,-0.0932 -0.03689,-0.20013 0,-0.28919 0.10434,-0.2519 0.474044,-0.32648 0.578384,-0.57838 0.03689,-0.0891 0,-0.19279 0,-0.28919 0,-0.1928 -0.07378,-0.40027 0,-0.57839 0.05217,-0.12595 0.209481,-0.1786 0.289192,-0.28919 0.378105,-0.52459 0.23822,-1.88372 0.867574,-1.73515 0.187636,0.0443 -0.101357,0.41438 0,0.57838 0.226644,0.36672 0.798846,0.3381 1.156769,0.57839 0.85077,0.57117 1.534283,1.3589 2.313533,2.02434 0.572537,0.48892 1.179204,0.93826 1.735153,1.44596 0.100666,0.0919 0.209479,0.1786 0.28919,0.28919 0.126034,0.17486 0.239669,0.3686 0.289192,0.57838 0.02215,0.0938 -0.04549,0.20421 0,0.2892 0.164002,0.30644 0.656606,0.30217 0.867577,0.57838 0.185033,0.24225 0.104161,0.62532 0.289192,0.86757 0.21097,0.27621 0.674175,0.2896 0.867574,0.57839 0.273507,0.40841 0.05726,1.01259 0.289192,1.44596 0.06433,0.1202 0.214146,0.17538 0.289192,0.28919 0.285769,0.43338 0.292617,1.01258 0.578385,1.44596 0.07505,0.11381 0.23702,0.16324 0.289189,0.28919 0.07378,0.17812 -0.07378,0.40026 0,0.57838 0.05217,0.12595 0.237023,0.16325 0.289193,0.2892 0.221334,0.53436 -0.0477,1.15874 0,1.73515 0.04836,0.58436 0.240829,1.15079 0.289192,1.73515 0.02385,0.2882 -0.04632,0.58211 0,0.86757 0.04883,0.3009 0.240363,0.56668 0.289192,0.86758 0.07721,0.47576 -0.09115,0.97267 0,1.44596 0.09817,0.50975 0.480216,0.93621 0.578385,1.44596 0.01823,0.0947 0,0.19279 0,0.28919 0,0.28919 -0.04632,0.58211 0,0.86757 0.09766,0.6018 0.480723,1.13336 0.578381,1.73516 0.04632,0.28546 -0.0285,0.57979 0,0.86757 0.04843,0.48914 0.210458,0.96078 0.289193,1.44596 0.124491,0.76714 0.2409,1.53785 0.289192,2.31353 0.02995,0.48106 -0.110737,0.97687 0,1.44596 0.04952,0.20979 0.239669,0.3686 0.289192,0.57839 0.06644,0.28145 -0.06644,0.58612 0,0.86757 0.04952,0.20979 0.239669,0.3686 0.289192,0.57839 0.06644,0.28145 0,0.57838 0,0.86757 0,0.1928 -0.0443,0.39075 0,0.57839 0.09905,0.41957 0.479335,0.73719 0.578382,1.15676 0.08859,0.37528 -0.08859,0.7815 0,1.15677 0.04952,0.20978 0.206704,0.37924 0.289192,0.57838 0.116656,0.28163 0.155262,0.59374 0.289193,0.86758 0.152703,0.31222 0.425681,0.55535 0.578384,0.86757 0.133931,0.27384 0.155262,0.59374 0.289192,0.86758 0.152703,0.31222 0.385589,0.57838 0.578382,0.86757 0.192795,0.28919 0.332617,0.62181 0.578384,0.86758 0.245766,0.24577 0.703575,0.27194 0.867577,0.57838 0.04549,0.085 -0.03689,0.20014 0,0.2892 0.260849,0.62975 0.963972,0.96397 1.445959,1.44596 0.0964,0.0964 0.237022,0.16324 0.289192,0.28919 0.03689,0.0891 -0.03689,0.20013 0,0.28919 0.156509,0.37785 0.578383,0.57838 0.867574,0.86757 0.289193,0.28919 0.578384,0.57839 0.867577,0.86758 0.192793,0.19279 0.357195,0.41896 0.578381,0.57838 0.174864,0.12603 0.403522,0.16315 0.578385,0.28919 0.110595,0.0797 0.163241,0.23703 0.289192,0.2892 0.08906,0.0369 0.207191,-0.0507 0.289192,0 0.183358,0.11332 0.105835,0.46506 0.289193,0.57838 0.082,0.0507 0.20013,-0.0369 0.289189,0 0.125949,0.0522 0.163243,0.23702 0.289192,0.28919 0.08906,0.0369 0.200133,-0.0369 0.289193,0 0.377848,0.15651 0.489728,0.71107 0.867576,0.86758 0.08906,0.0369 0.200132,-0.0369 0.289192,0 0.125948,0.0522 0.163242,0.23702 0.28919,0.28919 0.08906,0.0369 0.200132,-0.0369 0.289192,0 0.125949,0.0522 0.163243,0.23702 0.289192,0.28919 0.178119,0.0738 0.393862,-0.0559 0.578385,0 0.332651,0.10072 0.703573,0.27194 0.867574,0.57838 0.04549,0.085 -0.06816,0.22103 0,0.2892 0.06816,0.0682 0.200132,-0.0369 0.289192,0 0.125949,0.0522 0.192795,0.19279 0.289192,0.28919 0.192795,0.19279 0.326487,0.47404 0.578385,0.57838 0.178119,0.0738 0.400263,-0.0738 0.578382,0 0.125949,0.0522 0.163243,0.23702 0.289192,0.28919 0.178119,0.0738 0.442058,-0.13633 0.578384,0 0.06816,0.0682 -0.05636,0.21099 0,0.28919 0.178239,0.2473 0.689335,0.0419 0.867575,0.2892 0.0564,0.0782 0,0.19279 0,0.28919"
       id="path856"
       sodipodi:nodetypes="caaaaaaaaaaaaaaaaaaaaaaaaaaaaaaaaaaaaaaaaaaaaaaaaaaaaaaaaaaaaaaaaaaaaaaaaaaaaaaaaaaaaaaaaaaaaaaaaaaaaaaaaaaaaaaaaaac" />
    <text
       xml:space="preserve"
       style="font-size:6.35px;line-height:1.25;font-family:Arial;-inkscape-font-specification:'Arial, Normal';font-variant-ligatures:none;stroke-width:0.264583"
       x="92.25219"
       y="197.51802"
       id="text959"><tspan
         sodipodi:role="line"
         id="tspan957"
         style="stroke-width:0.264583"
         x="92.25219"
         y="197.51802">R0</tspan></text>
    <text
       xml:space="preserve"
       style="font-size:6.35px;line-height:1.25;font-family:Arial;-inkscape-font-specification:'Arial, Normal';font-variant-ligatures:none;stroke-width:0.264583"
       x="-160.34006"
       y="40.243858"
       id="text963"
       transform="rotate(-90)"><tspan
         sodipodi:role="line"
         id="tspan961"
         style="stroke-width:0.264583"
         x="-160.34006"
         y="40.243858">PDF</tspan></text>
    <path
       style="fill:#5bc5cf;fill-opacity:0.411546;stroke:#000000;stroke-width:0.264583px;stroke-linecap:butt;stroke-linejoin:miter;stroke-opacity:1"
       d="m 45.113924,188.84226 c 4.145081,0 8.290165,0 12.435247,0 0.38559,0 0.771178,0 1.156769,0 0.385588,0 0.773536,0.0426 1.156766,0 3.226234,-0.35847 0.06095,-0.12787 2.313535,-0.57839 0.18905,-0.0378 0.385588,0 0.578385,0 0.0964,0 0.202969,0.0431 0.289189,0 0.310872,-0.15543 0.556705,-0.42295 0.867577,-0.57838 0.272653,-0.13633 0.594923,-0.15287 0.867574,-0.28919 0.121936,-0.061 0.167259,-0.22823 0.289192,-0.28919 0.08622,-0.0431 0.22103,0.0682 0.289192,0 0.06817,-0.0682 -0.06816,-0.22103 0,-0.2892 0.152419,-0.15241 0.399034,-0.16962 0.578385,-0.28919 0.401037,-0.26736 0.725665,-0.65202 1.156766,-0.86757 0.355497,-0.17775 0.792636,-0.12989 1.156769,-0.2892 1.18487,-0.51837 2.313532,-1.15676 3.470301,-1.73515 1.00325,-0.50162 2.274398,-1.00978 3.18111,-1.73515 0.212904,-0.17032 0.363164,-0.41099 0.578384,-0.57838 1.034955,-0.80496 2.146154,-1.50857 3.181109,-2.31354 0.487222,-0.37895 1.009502,-0.72031 1.445959,-1.15676 0.820793,-0.8208 1.52917,-1.74706 2.313535,-2.60273 0.276357,-0.30148 0.59826,-0.55979 0.867577,-0.86757 0.406455,-0.46453 0.720309,-1.00951 1.156766,-1.44596 0.245766,-0.24577 0.62181,-0.33262 0.867574,-0.57839 0.01852,-0.0185 0.542472,-1.1029 0.578384,-1.15676 0.267359,-0.40104 0.587428,-0.76456 0.867577,-1.15677 0.5089,-0.71246 1.016161,-1.57674 1.445958,-2.31354 0.3916,-0.67131 0.739519,-1.36866 1.156767,-2.02434 1.129427,-1.77481 0.742013,-0.49088 1.445961,-2.60272 0.318257,-0.95478 0.567386,-1.93132 0.867574,-2.89192 0.181851,-0.58192 0.469323,-1.13532 0.578384,-1.73516 0.08622,-0.47421 -0.03697,-0.96539 0,-1.44595 0.07804,-1.01457 0.308875,-2.68146 0.578382,-3.7595 0.147868,-0.59146 0.458819,-1.13732 0.578385,-1.73515 0.03781,-0.18905 -0.06097,-0.39548 0,-0.57838 0.136326,-0.40898 0.473826,-0.73854 0.578384,-1.15677 0.09352,-0.37407 -0.1108,-0.78744 0,-1.15677 0.185814,-0.61938 0.663086,-1.12168 0.867574,-1.73515 0.09145,-0.27435 -0.07014,-0.58702 0,-0.86757 0.125905,-0.50362 0.441796,-0.94514 0.578384,-1.44596 0.154282,-0.5657 0.146979,-1.1663 0.289193,-1.73515 0.137041,-0.54817 0.483465,-0.77266 0.867574,-1.15677 0.0964,-0.0964 0.246083,-0.15986 0.289192,-0.28919 0.06097,-0.1829 -0.08622,-0.40595 0,-0.57838 1.910958,-3.82192 0.254783,-0.093 1.156769,-1.44596 0.119565,-0.17935 0.136774,-0.42597 0.289192,-0.57839 0.06816,-0.0682 0.23572,0.0802 0.28919,0 0.169092,-0.25364 0.152865,-0.59492 0.289192,-0.86757 0.497536,-0.99507 1.453919,-1.89367 2.024339,-2.89192 0.21389,-0.3743 0.38559,-0.77118 0.57839,-1.15677 0.19279,-0.38559 0.40856,-0.76052 0.57838,-1.15677 0.12008,-0.28018 0.13236,-0.60618 0.28919,-0.86757 0.14028,-0.2338 0.45645,-0.33452 0.57839,-0.57838 0.0862,-0.17244 -0.061,-0.39549 0,-0.57839 0.0431,-0.12933 0.19279,-0.19279 0.28919,-0.28919 0.0964,-0.0964 0.16726,-0.22823 0.28919,-0.28919 0.0862,-0.0431 0.1928,0 0.28919,0 0.1928,0 0.38753,0.0273 0.57839,0 0.40111,-0.0573 2.12912,-0.42052 2.60272,-0.57839 0.20449,-0.0682 0.3739,-0.22103 0.57839,-0.28919 0.37705,-0.12569 0.77118,-0.19279 1.15676,-0.28919 0.38559,-0.0964 0.76174,-0.2453 1.15677,-0.28919 0.47904,-0.0532 0.96397,0 1.44596,0 0.19279,0 0.39548,0.061 0.57838,0 0.12933,-0.0431 0.15986,-0.24608 0.28919,-0.28919 0.0755,-0.0252 1.59553,-0.0465 1.73516,0 0.65335,0.21778 1.20228,0.80152 1.73515,1.15676 0.17935,0.11957 0.45882,0.10985 0.57838,0.2892 0.10694,0.16041 -0.0862,0.40594 0,0.57838 0.1829,0.3658 0.57839,0.57838 0.86757,0.86758 1.77088,1.77087 -0.3658,-0.48774 0.86758,1.15676 0.16359,0.21812 0.41479,0.36026 0.57839,0.57839 0.53838,0.71784 0.61837,1.88487 1.15676,2.60272 0.16359,0.21812 0.42715,0.35153 0.57839,0.57839 0.19279,0.28919 0.62658,1.30136 0.86757,1.73515 0.37743,0.67937 0.77118,1.34956 1.15677,2.02434 0.38559,0.77118 0.7439,1.55661 1.15677,2.31353 0.16643,0.30513 0.42294,0.55671 0.57838,0.86758 0.13633,0.27265 0.18216,0.58215 0.28919,0.86757 0.18227,0.48607 0.36085,0.97463 0.57838,1.44596 0.54197,1.17427 1.2257,2.28157 1.73515,3.47031 0.12009,0.28018 0.1928,0.57838 0.2892,0.86757 0.50532,1.51597 0.68287,1.99516 1.15677,4.04869 0.0434,0.18785 -0.053,0.393 0,0.57838 0.14261,0.49914 0.45248,0.94234 0.57838,1.44596 0.0701,0.28056 -0.0409,0.58129 0,0.86757 0.0562,0.39347 0.2453,0.76175 0.28919,1.15677 0.0532,0.47904 -0.0682,0.96882 0,1.44596 0.0305,0.21339 0.26246,0.3645 0.28919,0.57839 0.0717,0.57391 -0.0576,1.15963 0,1.73515 0.0395,0.39548 0.25321,0.76094 0.28919,1.15676 0.0611,0.67201 0,1.34957 0,2.02435 0,0.67478 0,1.34956 0,2.02434 0,0.38559 -0.0426,0.77353 0,1.15676 0.0543,0.48853 0.16998,0.96911 0.2892,1.44597 0.0739,0.29573 0.21525,0.57184 0.28919,0.86757 0.11921,0.47686 0.14795,0.97516 0.28919,1.44596 0.14917,0.49722 0.42922,0.94874 0.57838,1.44596 0.14124,0.4708 0.16998,0.9691 0.2892,1.44596 0.60177,2.40709 -0.02,-0.34909 0.57838,1.44596 0.12568,0.37706 0.11144,0.80127 0.28919,1.15676 0.12194,0.24387 0.4381,0.34459 0.57838,0.57839 0.15684,0.26139 0.15287,0.59492 0.2892,0.86757 0.66176,1.32352 -0.11987,-1.22716 0.57838,0.86758 0.0305,0.0915 -0.0682,0.22103 0,0.28919 0.0682,0.0682 0.22103,-0.0682 0.28919,0 0.0682,0.0682 -0.0535,0.20898 0,0.28919 0.1928,0.1928 0.38559,0.38559 0.57838,0.57839 0,0.0964 -0.0431,0.20297 0,0.28919 0.061,0.12193 0.22823,0.16726 0.2892,0.28919 0.0431,0.0862 -0.0431,0.20297 0,0.28919 0.061,0.12193 0.19279,0.19279 0.28919,0.28919 0.0964,0.1928 0.20428,0.38027 0.28919,0.57839 0.20449,0.47714 0.3113,1.00082 0.57838,1.44596 0.0496,0.0827 0.1928,0 0.2892,0 0.0964,0.0964 0.22822,0.16725 0.28919,0.28919 0.0431,0.0862 -0.0431,0.20297 0,0.28919 0.061,0.12193 0.21357,0.17576 0.28919,0.28919 0.11956,0.17935 0.16963,0.39904 0.28919,0.57838 0.15124,0.22687 0.42715,0.35153 0.57839,0.57839 0.11956,0.17935 0.16962,0.39903 0.28919,0.57838 0.15124,0.22686 0.45645,0.33452 0.57838,0.57839 0.0431,0.0862 -0.0431,0.20297 0,0.28919 0.60177,1.20354 -0.02,-0.30916 0.57838,0.28919 0.0682,0.0682 -0.0682,0.22103 0,0.28919 0.0682,0.0682 0.22103,-0.0682 0.2892,0 0.0682,0.0682 -0.0431,0.20297 0,0.28919 0.061,0.12194 0.19279,0.1928 0.28919,0.28919 0.0964,0.0964 0.16726,0.22823 0.28919,0.2892 0.0862,0.0431 0.1928,0 0.28919,0"
       id="path1177" />
    <text
       xml:space="preserve"
       style="font-size:6.35px;line-height:1.25;font-family:Arial;-inkscape-font-specification:'Arial, Normal';font-variant-ligatures:none;stroke-width:0.264583"
       x="70.273621"
       y="166.86368"
       id="text1181"><tspan
         sodipodi:role="line"
         id="tspan1179"
         style="stroke-width:0.264583"
         x="70.273621"
         y="166.86368">Γ<tspan
   style="font-size:65%;baseline-shift:sub"
   id="tspan1239">1</tspan></tspan></text>
    <text
       xml:space="preserve"
       style="font-size:6.35px;line-height:1.25;font-family:Arial;-inkscape-font-specification:'Arial, Normal';font-variant-ligatures:none;stroke-width:0.264583"
       x="111.62804"
       y="161.36903"
       id="text1235"><tspan
         sodipodi:role="line"
         id="tspan1233"
         style="stroke-width:0.264583"
         x="111.62804"
         y="161.36903">Γ<tspan
   style="font-size:65%;baseline-shift:sub"
   id="tspan1237">2</tspan></tspan></text>
  </g>
</svg>
