<?xml version="1.0" encoding="UTF-8"?>
<svg id="Lag_1" data-name="Lag 1" xmlns="http://www.w3.org/2000/svg" viewBox="0 0 283.46 169.46">
  <defs>
    <style>
      .cls-1 {
        fill: #1e1e1c;
      }

      .cls-2 {
        fill: #47b385;
      }
    </style>
  </defs>
  <g>
    <g>
      <path class="cls-1" d="M12.6,89.9H0s0,25.36,0,25.36H12.6c8.44,0,16.06-4.8,16.06-13.16,0-8.36-7.61-12.2-16.06-12.2Z"/>
      <path class="cls-1" d="M108.3,151.33c9.71,0,16.05-6.69,16.05-16.31v-60.51s-32.1,0-32.1,0v60.51c0,9.62,6.33,16.31,16.05,16.31Z"/>
    </g>
    <polygon class="cls-1" points="0 135.01 0 167.29 31.3 167.29 12.6 135.01 0 135.01"/>
    <path class="cls-1" d="M67.32,133.35v-58.84s-29.37,0-29.37,0c9.08,5.47,15.34,14.67,15.34,25.82,0,12.89-6.23,22.76-17.72,29.34l23.19,37.63h28.71c-12.07-6.64-20.15-19.03-20.15-33.94Z"/>
  </g>
  <path class="cls-2" d="M210.38,11.37c-2.81,4.98-4.98,12.01-4.98,17.5,0,6.52,3.96,14.82,13.41,14.82,8.94,0,13.03-7.54,13.03-16.99V6.26l49.31,6.64V59.15h-16.61V30.41l-15.33-2.3v4.09c0,18.4-10.99,32.71-29.38,32.71-21.34,0-33.47-17.63-33.47-35.9,0-12.65,5.75-23.89,9.58-29l14.44,11.37Z"/>
  <g>
    <path class="cls-1" d="M92.25,135.02c0,9.62,6.33,16.31,16.05,16.31s16.05-6.69,16.05-16.31v-60.51h-32.1v60.51Z"/>
    <path class="cls-1" d="M178.87,160.88c-.64-.9-1.26-1.82-1.86-2.75s-1.18-1.88-1.73-2.85c-.83-1.44-1.61-2.92-2.34-4.43-.73-1.51-1.4-3.05-2.02-4.61-1.95-4.93-3.34-10.14-4.11-15.55-.49-3.2-.75-6.5-.75-9.89,0-4.06,.37-7.99,1.1-11.76,.41-2.36,.94-4.67,1.59-6.94,.62-2.18,1.35-4.32,2.17-6.41,.62-1.57,1.29-3.1,2.02-4.61,.73-1.51,1.51-2.99,2.34-4.43,.55-.96,1.13-1.91,1.73-2.85,.6-.93,1.22-1.85,1.86-2.75,.64-.9,1.3-1.79,1.99-2.66,1.05-1.34,2.15-2.63,3.29-3.88h-34.89v58.84c0,14.92-8.08,27.31-20.15,33.94h54.92c-1.1-1.21-2.16-2.46-3.17-3.75-.68-.87-1.35-1.76-1.99-2.66Z"/>
  </g>
  <path class="cls-2" d="M234.98,72.48c-26.74,0-48.49,21.75-48.49,48.49s21.75,48.49,48.49,48.49,48.49-21.75,48.49-48.49-21.75-48.49-48.49-48.49Zm0,75.46c-14.87,0-26.97-12.1-26.97-26.97s12.1-26.97,26.97-26.97,26.97,12.1,26.97,26.97-12.1,26.97-26.97,26.97Z"/>
</svg>